<?xml version="1.0" standalone="no"?>
<!DOCTYPE svg PUBLIC "-//W3C//DTD SVG 1.1//EN" "http://www.w3.org/Graphics/SVG/1.1/DTD/svg11.dtd" >
<svg xmlns="http://www.w3.org/2000/svg">
<metadata>Generated by IcoMoon</metadata>
<defs>
<font id="sp-icons" horiz-adv-x="1024">
<font-face units-per-em="1024" ascent="960" descent="-64" />
<missing-glyph horiz-adv-x="1024" />
<glyph unicode="&#x20;" horiz-adv-x="512" d="" />
<glyph unicode="&#xe900;" glyph-name="zoom-in" d="M925.867 93.867l-157.867 157.867c51.2 64 85.333 149.333 85.333 238.933 0 213.333-170.667 384-384 384s-384-170.667-384-384 170.667-384 384-384c89.6 0 174.933 29.867 238.933 85.333l157.867-157.867c8.533-8.533 17.067-12.8 29.867-12.8s21.333 4.267 29.867 12.8c17.067 17.067 17.067 42.667 0 59.733zM170.667 490.667c0 166.4 132.267 298.667 298.667 298.667s298.667-132.267 298.667-298.667-132.267-298.667-298.667-298.667-298.667 132.267-298.667 298.667zM597.333 533.333h-85.333v85.333c0 25.6-17.067 42.667-42.667 42.667s-42.667-17.067-42.667-42.667v-85.333h-85.333c-25.6 0-42.667-17.067-42.667-42.667s17.067-42.667 42.667-42.667h85.333v-85.333c0-25.6 17.067-42.667 42.667-42.667s42.667 17.067 42.667 42.667v85.333h85.333c25.6 0 42.667 17.067 42.667 42.667s-17.067 42.667-42.667 42.667z" />
<glyph unicode="&#xe901;" glyph-name="zoom-out" d="M925.867 93.867l-157.867 157.867c51.2 64 85.333 149.333 85.333 238.933 0 213.333-170.667 384-384 384s-384-170.667-384-384 170.667-384 384-384c89.6 0 174.933 29.867 238.933 85.333l157.867-157.867c8.533-8.533 17.067-12.8 29.867-12.8s21.333 4.267 29.867 12.8c17.067 17.067 17.067 42.667 0 59.733zM170.667 490.667c0 166.4 132.267 298.667 298.667 298.667s298.667-132.267 298.667-298.667-132.267-298.667-298.667-298.667-298.667 132.267-298.667 298.667zM597.333 533.333h-256c-25.6 0-42.667-17.067-42.667-42.667s17.067-42.667 42.667-42.667h256c25.6 0 42.667 17.067 42.667 42.667s-17.067 42.667-42.667 42.667z" />
<glyph unicode="&#xe902;" glyph-name="x-circle" d="M512 917.333c-260.267 0-469.333-209.067-469.333-469.333s209.067-469.333 469.333-469.333 469.333 209.067 469.333 469.333-209.067 469.333-469.333 469.333zM512 64c-213.333 0-384 170.667-384 384s170.667 384 384 384 384-170.667 384-384-170.667-384-384-384zM669.867 605.867c-17.067 17.067-42.667 17.067-59.733 0l-98.133-98.133-98.133 98.133c-17.067 17.067-42.667 17.067-59.733 0s-17.067-42.667 0-59.733l98.133-98.133-98.133-98.133c-17.067-17.067-17.067-42.667 0-59.733 8.533-8.533 17.067-12.8 29.867-12.8s21.333 4.267 29.867 12.8l98.133 98.133 98.133-98.133c8.533-8.533 17.067-12.8 29.867-12.8s21.333 4.267 29.867 12.8c17.067 17.067 17.067 42.667 0 59.733l-98.133 98.133 98.133 98.133c17.067 17.067 17.067 42.667 0 59.733z" />
<glyph unicode="&#xe903;" glyph-name="x-square" d="M810.667 874.667h-597.333c-72.533 0-128-55.467-128-128v-597.333c0-72.533 55.467-128 128-128h597.333c72.533 0 128 55.467 128 128v597.333c0 72.533-55.467 128-128 128zM853.333 149.333c0-25.6-17.067-42.667-42.667-42.667h-597.333c-25.6 0-42.667 17.067-42.667 42.667v597.333c0 25.6 17.067 42.667 42.667 42.667h597.333c25.6 0 42.667-17.067 42.667-42.667v-597.333zM669.867 605.867c-17.067 17.067-42.667 17.067-59.733 0l-98.133-98.133-98.133 98.133c-17.067 17.067-42.667 17.067-59.733 0s-17.067-42.667 0-59.733l98.133-98.133-98.133-98.133c-17.067-17.067-17.067-42.667 0-59.733 8.533-8.533 17.067-12.8 29.867-12.8s21.333 4.267 29.867 12.8l98.133 98.133 98.133-98.133c8.533-8.533 17.067-12.8 29.867-12.8s21.333 4.267 29.867 12.8c17.067 17.067 17.067 42.667 0 59.733l-98.133 98.133 98.133 98.133c17.067 17.067 17.067 42.667 0 59.733z" />
<glyph unicode="&#xe904;" glyph-name="x" d="M571.733 448l226.133 226.133c17.067 17.067 17.067 42.667 0 59.733s-42.667 17.067-59.733 0l-226.133-226.133-226.133 226.133c-17.067 17.067-42.667 17.067-59.733 0s-17.067-42.667 0-59.733l226.133-226.133-226.133-226.133c-17.067-17.067-17.067-42.667 0-59.733 8.533-8.533 17.067-12.8 29.867-12.8s21.333 4.267 29.867 12.8l226.133 226.133 226.133-226.133c8.533-8.533 17.067-12.8 29.867-12.8s21.333 4.267 29.867 12.8c17.067 17.067 17.067 42.667 0 59.733l-226.133 226.133z" />
<glyph unicode="&#xe905;" glyph-name="watch" d="M853.333 448c0 93.867-38.4 183.467-102.4 243.2l-17.067 153.6c-8.533 64-59.733 115.2-128 115.2h-187.733c-64 0-119.467-51.2-128-115.2l-12.8-149.333c-64-64-106.667-149.333-106.667-247.467s42.667-183.467 106.667-247.467l12.8-149.333c8.533-64 59.733-115.2 128-115.2h183.467c68.267 0 123.733 46.933 128 115.2l12.8 145.067c68.267 64 110.933 153.6 110.933 251.733zM375.467 836.267c4.267 21.333 21.333 38.4 42.667 38.4h183.467c21.333 0 42.667-17.067 42.667-38.4l8.533-76.8c-42.667 17.067-89.6 29.867-140.8 29.867s-98.133-12.8-140.8-29.867l4.267 76.8zM256 448c0 140.8 115.2 256 256 256s256-115.2 256-256c0-76.8-34.133-145.067-89.6-192-4.267 0-4.267-4.267-8.533-8.533-42.667-34.133-98.133-55.467-157.867-55.467-140.8 0-256 115.2-256 256zM644.267 59.733c0-21.333-21.333-38.4-42.667-38.4h-183.467c-21.333 0-42.667 17.067-42.667 38.4l-4.267 76.8c42.667-21.333 93.867-29.867 140.8-29.867 51.2 0 93.867 12.8 136.533 29.867l-4.267-76.8zM546.133 354.133c8.533-8.533 17.067-12.8 29.867-12.8s21.333 4.267 29.867 12.8c17.067 17.067 17.067 42.667 0 59.733l-51.2 51.2v110.933c0 25.6-17.067 42.667-42.667 42.667s-42.667-17.067-42.667-42.667v-128c0-12.8 4.267-21.333 12.8-29.867l64-64z" />
<glyph unicode="&#xe906;" glyph-name="wifi-off" d="M1011.2 8.533l-537.6 537.6c-4.267 4.267-8.533 8.533-12.8 12.8l-166.4 166.4c0 0-4.267 4.267-4.267 4.267l-217.6 217.6c-17.067 17.067-42.667 17.067-59.733 0s-17.067-42.667 0-59.733l174.933-174.933c-55.467-29.867-110.933-64-157.867-106.667-17.067-17.067-21.333-42.667-4.267-59.733 8.533-8.533 21.333-12.8 34.133-12.8s21.333 4.267 29.867 12.8c46.933 42.667 106.667 76.8 162.133 102.4l98.133-98.133c-59.733-17.067-115.2-51.2-166.4-89.6-17.067-12.8-21.333-42.667-4.267-59.733 8.533-12.8 21.333-17.067 34.133-17.067 8.533 0 21.333 0 29.867 4.267 51.2 46.933 115.2 72.533 179.2 89.6l119.467-119.467c-72.533 8.533-145.067-8.533-204.8-51.2-17.067-12.8-21.333-38.4-8.533-59.733 12.8-17.067 38.4-21.333 59.733-8.533 72.533 51.2 174.933 51.2 247.467 0 8.533-4.267 17.067-8.533 25.6-8.533 4.267 0 4.267 0 8.533 0l281.6-281.6c8.533-8.533 17.067-12.8 29.867-12.8s21.333 4.267 29.867 12.8c17.067 17.067 17.067 42.667 0 59.733zM674.133 507.733c-8.533-21.333 0-46.933 21.333-55.467 34.133-17.067 64-38.4 89.6-59.733 4.267-4.267 17.067-8.533 25.6-8.533 12.8 0 25.6 4.267 29.867 17.067 17.067 17.067 12.8 42.667-4.267 59.733-34.133 25.6-68.267 51.2-106.667 68.267-21.333 8.533-46.933 0-55.467-21.333zM460.8 699.733c170.667 12.8 345.6-42.667 473.6-157.867 8.533-4.267 21.333-8.533 29.867-8.533 12.8 0 21.333 4.267 29.867 12.8 17.067 17.067 12.8 42.667-4.267 59.733-145.067 128-341.333 196.267-537.6 179.2-21.333-4.267-38.4-21.333-38.4-46.933 4.267-21.333 25.6-38.4 46.933-38.4zM537.6 140.8c-4.267 4.267-4.267 4.267-8.533 4.267-4.267 4.267-4.267 4.267-8.533 4.267-12.8 0-29.867-4.267-38.4-12.8s-12.8-17.067-12.8-29.867c0-8.533 4.267-12.8 4.267-17.067s4.267-8.533 8.533-12.8 17.067-12.8 29.867-12.8 21.333 4.267 29.867 12.8c4.267 4.267 4.267 8.533 8.533 12.8s4.267 12.8 4.267 17.067c0 8.533-4.267 21.333-12.8 29.867l-4.267 4.267z" />
<glyph unicode="&#xe907;" glyph-name="volume-x" d="M486.4 785.067c-17.067 8.533-34.133 4.267-46.933-4.267l-200.533-162.133h-153.6c-25.6 0-42.667-17.067-42.667-42.667v-256c0-25.6 17.067-42.667 42.667-42.667h153.6l204.8-162.133c8.533-4.267 17.067-8.533 25.6-8.533 4.267 0 12.8 0 17.067 4.267 17.067 8.533 25.6 21.333 25.6 38.4v597.333c0 17.067-8.533 29.867-25.6 38.4zM426.667 238.933l-145.067 115.2c-8.533 4.267-17.067 8.533-25.6 8.533h-128v170.667h128c8.533 0 17.067 4.267 25.6 8.533l145.067 115.2v-418.133zM913.067 448l98.133 98.133c17.067 17.067 17.067 42.667 0 59.733s-42.667 17.067-59.733 0l-98.133-98.133-98.133 98.133c-17.067 17.067-42.667 17.067-59.733 0s-17.067-42.667 0-59.733l98.133-98.133-98.133-98.133c-17.067-17.067-17.067-42.667 0-59.733 8.533-8.533 17.067-12.8 29.867-12.8s21.333 4.267 29.867 12.8l98.133 98.133 98.133-98.133c8.533-8.533 17.067-12.8 29.867-12.8s21.333 4.267 29.867 12.8c17.067 17.067 17.067 42.667 0 59.733l-98.133 98.133z" />
<glyph unicode="&#xe908;" glyph-name="voicemail" d="M789.333 704c-128 0-234.667-106.667-234.667-234.667 0-55.467 21.333-106.667 55.467-149.333h-196.267c34.133 42.667 55.467 93.867 55.467 149.333 0 128-106.667 234.667-234.667 234.667s-234.667-106.667-234.667-234.667 106.667-234.667 234.667-234.667h554.667c128 0 234.667 106.667 234.667 234.667s-106.667 234.667-234.667 234.667zM85.333 469.333c0 81.067 68.267 149.333 149.333 149.333s149.333-68.267 149.333-149.333-68.267-149.333-149.333-149.333-149.333 68.267-149.333 149.333zM789.333 320c-81.067 0-149.333 68.267-149.333 149.333s68.267 149.333 149.333 149.333 149.333-68.267 149.333-149.333-68.267-149.333-149.333-149.333z" />
<glyph unicode="&#xe909;" glyph-name="video-off" d="M998.4 699.733c-12.8 8.533-29.867 4.267-42.667-4.267l-226.133-162.133-4.267 4.267v123.733c0 72.533-55.467 128-128 128h-140.8c-25.6 0-42.667-17.067-42.667-42.667s17.067-42.667 42.667-42.667h140.8c25.6 0 42.667-17.067 42.667-42.667v-145.067c0-12.8 4.267-21.333 12.8-29.867l42.667-42.667c17.067-12.8 38.4-17.067 55.467-4.267l187.733 136.533v-341.333c0-25.6 17.067-42.667 42.667-42.667s42.667 17.067 42.667 42.667v426.667c0 17.067-8.533 29.867-25.6 38.4zM716.8 302.933c-4.267 4.267-4.267 8.533-8.533 8.533l-460.8 460.8c0 4.267-4.267 8.533-8.533 8.533l-166.4 166.4c-17.067 17.067-42.667 17.067-59.733 0s-17.067-42.667 0-59.733l98.133-98.133c-64-8.533-110.933-59.733-110.933-128v-426.667c0-72.533 55.467-128 128-128h469.333c55.467 0 98.133 29.867 119.467 76.8l234.667-234.667c8.533-8.533 17.067-12.8 29.867-12.8s21.333 4.267 29.867 12.8c17.067 17.067 17.067 42.667 0 59.733l-294.4 294.4zM640 234.667c0-25.6-17.067-42.667-42.667-42.667h-469.333c-25.6 0-42.667 17.067-42.667 42.667v426.667c0 25.6 17.067 42.667 42.667 42.667h68.267l443.733-443.733v-25.6z" />
<glyph unicode="&#xe90a;" glyph-name="video" d="M998.4 699.733c-12.8 4.267-29.867 4.267-42.667-4.267l-230.4-166.4v132.267c0 72.533-55.467 128-128 128h-469.333c-72.533 0-128-55.467-128-128v-426.667c0-72.533 55.467-128 128-128h469.333c72.533 0 128 55.467 128 128v132.267l230.4-166.4c8.533-4.267 17.067-8.533 25.6-8.533s12.8 0 21.333 4.267c12.8 8.533 21.333 21.333 21.333 38.4v426.667c0 17.067-8.533 29.867-25.6 38.4zM640 234.667c0-25.6-17.067-42.667-42.667-42.667h-469.333c-25.6 0-42.667 17.067-42.667 42.667v426.667c0 25.6 17.067 42.667 42.667 42.667h469.333c25.6 0 42.667-17.067 42.667-42.667v-426.667zM938.667 315.733l-183.467 132.267 183.467 132.267v-264.533z" />
<glyph unicode="&#xe90b;" glyph-name="user-plus" d="M512 362.667h-298.667c-119.467 0-213.333-93.867-213.333-213.333v-85.333c0-25.6 17.067-42.667 42.667-42.667s42.667 17.067 42.667 42.667v85.333c0 72.533 55.467 128 128 128h298.667c72.533 0 128-55.467 128-128v-85.333c0-25.6 17.067-42.667 42.667-42.667s42.667 17.067 42.667 42.667v85.333c0 119.467-93.867 213.333-213.333 213.333zM362.667 448c119.467 0 213.333 93.867 213.333 213.333s-93.867 213.333-213.333 213.333-213.333-93.867-213.333-213.333 93.867-213.333 213.333-213.333zM362.667 789.333c72.533 0 128-55.467 128-128s-55.467-128-128-128-128 55.467-128 128 55.467 128 128 128zM981.333 533.333h-85.333v85.333c0 25.6-17.067 42.667-42.667 42.667s-42.667-17.067-42.667-42.667v-85.333h-85.333c-25.6 0-42.667-17.067-42.667-42.667s17.067-42.667 42.667-42.667h85.333v-85.333c0-25.6 17.067-42.667 42.667-42.667s42.667 17.067 42.667 42.667v85.333h85.333c25.6 0 42.667 17.067 42.667 42.667s-17.067 42.667-42.667 42.667z" />
<glyph unicode="&#xe90c;" glyph-name="user-x" d="M512 362.667h-298.667c-119.467 0-213.333-93.867-213.333-213.333v-85.333c0-25.6 17.067-42.667 42.667-42.667s42.667 17.067 42.667 42.667v85.333c0 72.533 55.467 128 128 128h298.667c72.533 0 128-55.467 128-128v-85.333c0-25.6 17.067-42.667 42.667-42.667s42.667 17.067 42.667 42.667v85.333c0 119.467-93.867 213.333-213.333 213.333zM362.667 448c119.467 0 213.333 93.867 213.333 213.333s-93.867 213.333-213.333 213.333-213.333-93.867-213.333-213.333 93.867-213.333 213.333-213.333zM362.667 789.333c72.533 0 128-55.467 128-128s-55.467-128-128-128-128 55.467-128 128 55.467 128 128 128zM934.4 512l76.8 76.8c17.067 17.067 17.067 42.667 0 59.733s-42.667 17.067-59.733 0l-76.8-76.8-76.8 76.8c-17.067 17.067-42.667 17.067-59.733 0s-17.067-42.667 0-59.733l76.8-76.8-76.8-76.8c-17.067-17.067-17.067-42.667 0-59.733 8.533-8.533 17.067-12.8 29.867-12.8s21.333 4.267 29.867 12.8l76.8 76.8 76.8-76.8c8.533-8.533 17.067-12.8 29.867-12.8s21.333 4.267 29.867 12.8c17.067 17.067 17.067 42.667 0 59.733l-76.8 76.8z" />
<glyph unicode="&#xe90d;" glyph-name="users" d="M554.667 362.667h-341.333c-119.467 0-213.333-93.867-213.333-213.333v-85.333c0-25.6 17.067-42.667 42.667-42.667s42.667 17.067 42.667 42.667v85.333c0 72.533 55.467 128 128 128h341.333c72.533 0 128-55.467 128-128v-85.333c0-25.6 17.067-42.667 42.667-42.667s42.667 17.067 42.667 42.667v85.333c0 119.467-93.867 213.333-213.333 213.333zM384 448c119.467 0 213.333 93.867 213.333 213.333s-93.867 213.333-213.333 213.333-213.333-93.867-213.333-213.333 93.867-213.333 213.333-213.333zM384 789.333c72.533 0 128-55.467 128-128s-55.467-128-128-128-128 55.467-128 128 55.467 128 128 128zM866.133 354.133c-21.333 8.533-46.933-8.533-51.2-29.867-8.533-21.333 8.533-46.933 29.867-51.2 55.467-12.8 93.867-64 93.867-123.733v-85.333c0-25.6 17.067-42.667 42.667-42.667s42.667 17.067 46.933 42.667v85.333c-4.267 93.867-68.267 179.2-162.133 204.8zM691.2 866.133c-21.333 8.533-46.933-8.533-51.2-29.867s8.533-46.933 29.867-46.933c68.267-21.333 110.933-89.6 93.867-157.867-12.8-46.933-46.933-81.067-93.867-93.867-21.333-4.267-34.133-29.867-29.867-51.2s25.6-34.133 42.667-34.133c4.267 0 8.533 0 8.533 0 76.8 17.067 132.267 76.8 153.6 153.6 29.867 115.2-38.4 230.4-153.6 260.267z" />
<glyph unicode="&#xe90e;" glyph-name="unlock" d="M810.667 533.333h-469.333v128c0 46.933 17.067 89.6 51.2 119.467 29.867 34.133 72.533 51.2 119.467 51.2 81.067 0 149.333-55.467 166.4-136.533 4.267-25.6 29.867-38.4 51.2-34.133s38.4 29.867 34.133 51.2c-25.6 119.467-132.267 204.8-251.733 204.8-68.267 0-132.267-25.6-179.2-76.8-51.2-46.933-76.8-110.933-76.8-179.2v-128h-42.667c-72.533 0-128-55.467-128-128v-298.667c0-72.533 55.467-128 128-128h597.333c72.533 0 128 55.467 128 128v298.667c0 72.533-55.467 128-128 128zM853.333 106.667c0-25.6-17.067-42.667-42.667-42.667h-597.333c-25.6 0-42.667 17.067-42.667 42.667v298.667c0 25.6 17.067 42.667 42.667 42.667h597.333c25.6 0 42.667-17.067 42.667-42.667v-298.667z" />
<glyph unicode="&#xe90f;" glyph-name="upload-cloud" d="M994.133 482.133c-46.933 81.067-132.267 132.267-226.133 132.267h-25.6c-64 183.467-260.267 294.4-456.533 243.2-98.133-25.6-179.2-85.333-234.667-174.933s-68.267-192-42.667-290.133c17.067-59.733 46.933-110.933 85.333-157.867 17.067-17.067 42.667-21.333 59.733-4.267s21.333 42.667 4.267 59.733c-29.867 34.133-51.2 76.8-64 123.733-21.333 81.067-8.533 157.867 34.133 230.4 38.4 68.267 102.4 115.2 179.2 132.267 157.867 42.667 320-55.467 362.667-213.333 4.267-17.067 21.333-29.867 42.667-29.867h55.467c64 0 119.467-34.133 149.333-89.6 21.333-38.4 25.6-85.333 12.8-128s-42.667-81.067-81.067-102.4c-21.333-12.8-29.867-38.4-17.067-59.733 8.533-12.8 21.333-21.333 38.4-21.333 8.533 0 12.8 0 21.333 0 59.733 34.133 102.4 89.6 123.733 153.6 17.067 68.267 12.8 136.533-21.333 196.267zM546.133 473.6c-8.533 8.533-17.067 17.067-34.133 17.067s-25.6-8.533-34.133-17.067l-166.4-166.4c-17.067-17.067-17.067-42.667 0-59.733s42.667-17.067 59.733 0l98.133 98.133v-281.6c0-25.6 17.067-42.667 42.667-42.667s42.667 17.067 42.667 42.667v281.6l98.133-98.133c8.533-8.533 17.067-12.8 29.867-12.8s21.333 4.267 29.867 12.8c17.067 17.067 17.067 42.667 0 59.733l-166.4 166.4z" />
<glyph unicode="&#xe910;" glyph-name="upload" d="M896 277.333c-25.6 0-42.667-17.067-42.667-42.667v-128c0-25.6-17.067-42.667-42.667-42.667h-597.333c-25.6 0-42.667 17.067-42.667 42.667v128c0 25.6-17.067 42.667-42.667 42.667s-42.667-17.067-42.667-42.667v-128c0-72.533 55.467-128 128-128h597.333c72.533 0 128 55.467 128 128v128c0 25.6-17.067 42.667-42.667 42.667zM371.2 674.133l98.133 98.133v-494.933c0-25.6 17.067-42.667 42.667-42.667s42.667 17.067 42.667 42.667v494.933l98.133-98.133c8.533-8.533 17.067-12.8 29.867-12.8s21.333 4.267 29.867 12.8c17.067 17.067 17.067 42.667 0 59.733l-166.4 166.4c-8.533 8.533-17.067 17.067-34.133 17.067s-25.6-8.533-34.133-17.067l-166.4-166.4c-17.067-17.067-17.067-42.667 0-59.733s42.667-17.067 59.733 0z" />
<glyph unicode="&#xe911;" glyph-name="type" d="M853.333 832h-682.667c-25.6 0-42.667-17.067-42.667-42.667v-128c0-25.6 17.067-42.667 42.667-42.667s42.667 17.067 42.667 42.667v85.333h256v-597.333h-85.333c-25.6 0-42.667-17.067-42.667-42.667s17.067-42.667 42.667-42.667h256c25.6 0 42.667 17.067 42.667 42.667s-17.067 42.667-42.667 42.667h-85.333v597.333h256v-85.333c0-25.6 17.067-42.667 42.667-42.667s42.667 17.067 42.667 42.667v128c0 25.6-17.067 42.667-42.667 42.667z" />
<glyph unicode="&#xe912;" glyph-name="umbrella" d="M465.067 913.067c-247.467-21.333-439.467-217.6-465.067-460.8 0-12.8 4.267-25.6 12.8-34.133 4.267-8.533 17.067-12.8 29.867-12.8h426.667v-256c0-93.867 76.8-170.667 170.667-170.667s170.667 76.8 170.667 170.667c0 25.6-17.067 42.667-42.667 42.667s-42.667-17.067-42.667-42.667c0-46.933-38.4-85.333-85.333-85.333s-85.333 38.4-85.333 85.333v256h426.667c12.8 0 21.333 4.267 29.867 12.8s12.8 21.333 12.8 34.133c-25.6 281.6-277.333 490.667-558.933 460.8zM512 490.667h-422.4c38.4 183.467 192 324.267 379.733 341.333 217.6 17.067 418.133-132.267 460.8-341.333h-418.133z" />
<glyph unicode="&#xe913;" glyph-name="tv" d="M853.333 704h-238.933l140.8 140.8c17.067 17.067 17.067 42.667 0 59.733s-42.667 17.067-59.733 0l-183.467-183.467-183.467 183.467c-17.067 17.067-42.667 17.067-59.733 0s-17.067-42.667 0-59.733l140.8-140.8h-238.933c-72.533 0-128-55.467-128-128v-469.333c0-72.533 55.467-128 128-128h682.667c72.533 0 128 55.467 128 128v469.333c0 72.533-55.467 128-128 128zM896 106.667c0-25.6-17.067-42.667-42.667-42.667h-682.667c-25.6 0-42.667 17.067-42.667 42.667v469.333c0 25.6 17.067 42.667 42.667 42.667h682.667c25.6 0 42.667-17.067 42.667-42.667v-469.333z" />
<glyph unicode="&#xe914;" glyph-name="trending-down" d="M981.333 490.667c-25.6 0-42.667-17.067-42.667-42.667v-153.6l-332.8 332.8c-17.067 17.067-42.667 17.067-59.733 0l-183.467-183.467-290.133 290.133c-17.067 17.067-42.667 17.067-59.733 0s-17.067-42.667 0-59.733l320-320c17.067-17.067 42.667-17.067 59.733 0l183.467 183.467 302.933-302.933h-153.6c-25.6 0-42.667-17.067-42.667-42.667s17.067-42.667 42.667-42.667h256c25.6 0 42.667 17.067 42.667 42.667v256c0 25.6-17.067 42.667-42.667 42.667z" />
<glyph unicode="&#xe915;" glyph-name="trending-up" d="M981.333 746.667h-256c-25.6 0-42.667-17.067-42.667-42.667s17.067-42.667 42.667-42.667h153.6l-302.933-302.933-183.467 183.467c-17.067 17.067-42.667 17.067-59.733 0l-320-320c-17.067-17.067-17.067-42.667 0-59.733 8.533-8.533 17.067-12.8 29.867-12.8s21.333 4.267 29.867 12.8l290.133 290.133 183.467-183.467c17.067-17.067 42.667-17.067 59.733 0l332.8 332.8v-153.6c0-25.6 17.067-42.667 42.667-42.667s42.667 17.067 42.667 42.667v256c0 25.6-17.067 42.667-42.667 42.667z" />
<glyph unicode="&#xe916;" glyph-name="trash-2" d="M896 746.667h-170.667v42.667c0 72.533-55.467 128-128 128h-170.667c-72.533 0-128-55.467-128-128v-42.667h-170.667c-25.6 0-42.667-17.067-42.667-42.667s17.067-42.667 42.667-42.667h42.667v-554.667c0-72.533 55.467-128 128-128h426.667c72.533 0 128 55.467 128 128v554.667h42.667c25.6 0 42.667 17.067 42.667 42.667s-17.067 42.667-42.667 42.667zM384 789.333c0 25.6 17.067 42.667 42.667 42.667h170.667c25.6 0 42.667-17.067 42.667-42.667v-42.667h-256v42.667zM768 106.667c0-25.6-17.067-42.667-42.667-42.667h-426.667c-25.6 0-42.667 17.067-42.667 42.667v554.667h512v-554.667zM426.667 533.333c-25.6 0-42.667-17.067-42.667-42.667v-256c0-25.6 17.067-42.667 42.667-42.667s42.667 17.067 42.667 42.667v256c0 25.6-17.067 42.667-42.667 42.667zM597.333 533.333c-25.6 0-42.667-17.067-42.667-42.667v-256c0-25.6 17.067-42.667 42.667-42.667s42.667 17.067 42.667 42.667v256c0 25.6-17.067 42.667-42.667 42.667z" />
<glyph unicode="&#xe917;" glyph-name="trash" d="M896 746.667h-170.667v42.667c0 72.533-55.467 128-128 128h-170.667c-72.533 0-128-55.467-128-128v-42.667h-170.667c-25.6 0-42.667-17.067-42.667-42.667s17.067-42.667 42.667-42.667h42.667v-554.667c0-72.533 55.467-128 128-128h426.667c72.533 0 128 55.467 128 128v554.667h42.667c25.6 0 42.667 17.067 42.667 42.667s-17.067 42.667-42.667 42.667zM384 789.333c0 25.6 17.067 42.667 42.667 42.667h170.667c25.6 0 42.667-17.067 42.667-42.667v-42.667h-256v42.667zM768 106.667c0-25.6-17.067-42.667-42.667-42.667h-426.667c-25.6 0-42.667 17.067-42.667 42.667v554.667h512v-554.667z" />
<glyph unicode="&#xe918;" glyph-name="thumbs-down" d="M840.533 917.333c-4.267 0-4.267 0-4.267 0h-593.067c-64 0-115.2-46.933-128-110.933l-59.733-384c-12.8-68.267 38.4-136.533 106.667-145.067 8.533 0 12.8 0 21.333 0h200.533v-128c0-93.867 76.8-170.667 170.667-170.667 17.067 0 34.133 8.533 42.667 25.6l157.867 358.4h85.333c68.267 0 132.267 51.2 140.8 123.733v307.2c-12.8 72.533-72.533 123.733-140.8 123.733zM682.667 413.867l-153.6-345.6c-34.133 12.8-59.733 42.667-59.733 81.067v170.667c0 25.6-17.067 42.667-42.667 42.667h-243.2c-4.267 0-4.267 0-8.533 0-21.333 0-38.4 25.6-34.133 46.933l59.733 384c4.267 21.333 21.333 38.4 42.667 38.4h439.467v-418.133zM896 494.933c-4.267-29.867-25.6-46.933-55.467-46.933h-72.533v384h72.533c25.6 0 51.2-21.333 55.467-46.933v-290.133z" />
<glyph unicode="&#xe919;" glyph-name="thumbs-up" d="M947.2 567.467c-21.333 29.867-51.2 46.933-85.333 51.2-8.533 0-12.8 0-21.333 0h-200.533v128c0 93.867-76.8 170.667-170.667 170.667-17.067 0-34.133-8.533-38.4-25.6l-157.867-358.4h-102.4c-72.533 0-128-55.467-128-128v-298.667c0-72.533 55.467-128 128-128h610.133c64 0 115.2 46.933 128 110.933l59.733 384c8.533 34.133 0 68.267-21.333 93.867zM256 64h-85.333c-25.6 0-42.667 17.067-42.667 42.667v298.667c0 25.6 17.067 42.667 42.667 42.667h85.333v-384zM823.467 98.133c-4.267-17.067-21.333-34.133-42.667-34.133h-439.467v418.133l153.6 345.6c34.133-12.8 59.733-42.667 59.733-81.067v-174.933c0-25.6 17.067-42.667 42.667-42.667h238.933c4.267 0 4.267 0 8.533 0 12.8 0 21.333-8.533 29.867-17.067s8.533-17.067 8.533-29.867l-59.733-384z" />
<glyph unicode="&#xe91a;" glyph-name="sunrise" d="M512 448c-140.8 0-256-115.2-256-256 0-25.6 17.067-42.667 42.667-42.667s42.667 17.067 42.667 42.667c0 93.867 76.8 170.667 170.667 170.667s170.667-76.8 170.667-170.667c0-25.6 17.067-42.667 42.667-42.667s42.667 17.067 42.667 42.667c0 140.8-115.2 256-256 256zM209.067 435.2c8.533-8.533 17.067-12.8 29.867-12.8s25.6 4.267 29.867 12.8c17.067 17.067 17.067 42.667 0 59.733l-59.733 59.733c-17.067 17.067-42.667 17.067-59.733 0s-17.067-42.667 0-59.733l59.733-59.733zM42.667 149.333h85.333c25.6 0 42.667 17.067 42.667 42.667s-17.067 42.667-42.667 42.667h-85.333c-25.6 0-42.667-17.067-42.667-42.667s17.067-42.667 42.667-42.667zM853.333 192c0-25.6 17.067-42.667 42.667-42.667h85.333c25.6 0 42.667 17.067 42.667 42.667s-17.067 42.667-42.667 42.667h-85.333c-25.6 0-42.667-17.067-42.667-42.667zM785.067 422.4c8.533 0 21.333 4.267 29.867 12.8l59.733 59.733c17.067 17.067 17.067 42.667 0 59.733s-42.667 17.067-59.733 0l-59.733-59.733c-17.067-17.067-17.067-42.667 0-59.733 8.533-8.533 17.067-12.8 29.867-12.8zM981.333 64h-938.667c-25.6 0-42.667-17.067-42.667-42.667s17.067-42.667 42.667-42.667h938.667c25.6 0 42.667 17.067 42.667 42.667s-17.067 42.667-42.667 42.667zM371.2 674.133l98.133 98.133v-196.267c0-25.6 17.067-42.667 42.667-42.667s42.667 17.067 42.667 42.667v196.267l98.133-98.133c8.533-8.533 17.067-12.8 29.867-12.8s21.333 4.267 29.867 12.8c17.067 17.067 17.067 42.667 0 59.733l-166.4 166.4c-8.533 8.533-17.067 17.067-34.133 17.067s-25.6-8.533-34.133-17.067l-166.4-166.4c-17.067-17.067-17.067-42.667 0-59.733s42.667-17.067 59.733 0z" />
<glyph unicode="&#xe91b;" glyph-name="sunset" d="M512 448c-140.8 0-256-115.2-256-256 0-25.6 17.067-42.667 42.667-42.667s42.667 17.067 42.667 42.667c0 93.867 76.8 170.667 170.667 170.667s170.667-76.8 170.667-170.667c0-25.6 17.067-42.667 42.667-42.667s42.667 17.067 42.667 42.667c0 140.8-115.2 256-256 256zM209.067 435.2c8.533-8.533 17.067-12.8 29.867-12.8s25.6 4.267 29.867 12.8c17.067 17.067 17.067 42.667 0 59.733l-59.733 59.733c-17.067 17.067-42.667 17.067-59.733 0s-17.067-42.667 0-59.733l59.733-59.733zM42.667 149.333h85.333c25.6 0 42.667 17.067 42.667 42.667s-17.067 42.667-42.667 42.667h-85.333c-25.6 0-42.667-17.067-42.667-42.667s17.067-42.667 42.667-42.667zM853.333 192c0-25.6 17.067-42.667 42.667-42.667h85.333c25.6 0 42.667 17.067 42.667 42.667s-17.067 42.667-42.667 42.667h-85.333c-25.6 0-42.667-17.067-42.667-42.667zM785.067 422.4c8.533 0 21.333 4.267 29.867 12.8l59.733 59.733c17.067 17.067 17.067 42.667 0 59.733s-42.667 17.067-59.733 0l-59.733-59.733c-17.067-17.067-17.067-42.667 0-59.733 8.533-8.533 17.067-12.8 29.867-12.8zM981.333 64h-938.667c-25.6 0-42.667-17.067-42.667-42.667s17.067-42.667 42.667-42.667h938.667c25.6 0 42.667 17.067 42.667 42.667s-17.067 42.667-42.667 42.667zM477.867 550.4c8.533-8.533 17.067-17.067 34.133-17.067s25.6 8.533 34.133 17.067l166.4 166.4c17.067 17.067 17.067 42.667 0 59.733s-42.667 17.067-59.733 0l-98.133-98.133v196.267c0 25.6-17.067 42.667-42.667 42.667s-42.667-17.067-42.667-42.667v-196.267l-98.133 98.133c-17.067 17.067-42.667 17.067-59.733 0s-17.067-42.667 0-59.733l166.4-166.4z" />
<glyph unicode="&#xe91c;" glyph-name="sliders" d="M170.667 490.667c25.6 0 42.667 17.067 42.667 42.667v298.667c0 25.6-17.067 42.667-42.667 42.667s-42.667-17.067-42.667-42.667v-298.667c0-25.6 17.067-42.667 42.667-42.667zM512 490.667c-25.6 0-42.667-17.067-42.667-42.667v-384c0-25.6 17.067-42.667 42.667-42.667s42.667 17.067 42.667 42.667v384c0 25.6-17.067 42.667-42.667 42.667zM853.333 405.333c25.6 0 42.667 17.067 42.667 42.667v384c0 25.6-17.067 42.667-42.667 42.667s-42.667-17.067-42.667-42.667v-384c0-25.6 17.067-42.667 42.667-42.667zM298.667 405.333h-256c-25.6 0-42.667-17.067-42.667-42.667s17.067-42.667 42.667-42.667h85.333v-256c0-25.6 17.067-42.667 42.667-42.667s42.667 17.067 42.667 42.667v256h85.333c25.6 0 42.667 17.067 42.667 42.667s-17.067 42.667-42.667 42.667zM640 661.333h-85.333v170.667c0 25.6-17.067 42.667-42.667 42.667s-42.667-17.067-42.667-42.667v-170.667h-85.333c-25.6 0-42.667-17.067-42.667-42.667s17.067-42.667 42.667-42.667h256c25.6 0 42.667 17.067 42.667 42.667s-17.067 42.667-42.667 42.667zM981.333 320h-256c-25.6 0-42.667-17.067-42.667-42.667s17.067-42.667 42.667-42.667h85.333v-170.667c0-25.6 17.067-42.667 42.667-42.667s42.667 17.067 42.667 42.667v170.667h85.333c25.6 0 42.667 17.067 42.667 42.667s-17.067 42.667-42.667 42.667z" />
<glyph unicode="&#xe91d;" glyph-name="slack" d="M985.6 588.8c-55.467 179.2-123.733 281.6-217.6 332.8-98.133 51.2-217.6 51.2-396.8-4.267-345.6-102.4-435.2-268.8-328.533-610.133 76.8-256 187.733-371.2 379.733-371.2 64 0 140.8 12.8 230.4 42.667 345.6 102.4 435.2 268.8 332.8 610.133zM627.2 59.733c-294.4-89.6-413.867-25.6-503.467 273.067-89.6 294.4-25.6 413.867 273.067 503.467 85.333 25.6 153.6 38.4 209.067 38.4 46.933 0 85.333-8.533 119.467-25.6 76.8-42.667 128-128 174.933-285.867 89.6-294.4 25.6-413.867-273.067-503.467zM755.2 465.067l-81.067-29.867-42.667 123.733 85.333 29.867c21.333 8.533 34.133 34.133 25.6 55.467s-34.133 34.133-55.467 25.6l-85.333-29.867-25.6 81.067c-8.533 21.333-34.133 34.133-55.467 25.6s-34.133-34.133-25.6-55.467l29.867-76.8-119.467-42.667-29.867 76.8c-8.533 21.333-34.133 34.133-55.467 25.6-21.333-4.267-34.133-29.867-25.6-51.2l25.6-81.067-76.8-25.6c-21.333-8.533-34.133-34.133-25.6-55.467 4.267-17.067 21.333-29.867 38.4-29.867 4.267 0 8.533 0 12.8 0l81.067 29.867 42.667-119.467-81.067-29.867c-21.333-8.533-34.133-34.133-25.6-55.467 4.267-17.067 21.333-29.867 38.4-29.867 4.267 0 8.533 4.267 12.8 4.267l85.333 29.867 25.6-81.067c4.267-17.067 21.333-29.867 38.4-29.867 4.267 0 8.533 0 17.067 0 21.333 8.533 34.133 34.133 25.6 55.467l-29.867 81.067 123.733 42.667 29.867-81.067c4.267-17.067 21.333-29.867 38.4-29.867 4.267 0 8.533 0 12.8 4.267 21.333 8.533 34.133 34.133 25.6 55.467l-25.6 76.8 81.067 29.867c21.333 8.533 34.133 34.133 25.6 55.467s-34.133 34.133-55.467 25.6zM473.6 366.933l-42.667 119.467 119.467 42.667 42.667-119.467-119.467-42.667z" />
<glyph unicode="&#xe91e;" glyph-name="slash" d="M512 917.333c-128 0-243.2-51.2-328.533-132.267 0 0-4.267 0-4.267-4.267s0-4.267-4.267-4.267c-81.067-85.333-132.267-200.533-132.267-328.533 0-260.267 209.067-469.333 469.333-469.333s469.333 209.067 469.333 469.333-209.067 469.333-469.333 469.333zM896 448c0-89.6-29.867-174.933-85.333-238.933l-537.6 537.6c64 55.467 149.333 85.333 238.933 85.333 213.333 0 384-170.667 384-384zM128 448c0 89.6 29.867 174.933 85.333 238.933l537.6-537.6c-64-51.2-149.333-85.333-238.933-85.333-213.333 0-384 170.667-384 384z" />
<glyph unicode="&#xe91f;" glyph-name="sidebar" d="M810.667 874.667h-597.333c-72.533 0-128-55.467-128-128v-597.333c0-72.533 55.467-128 128-128h597.333c72.533 0 128 55.467 128 128v597.333c0 72.533-55.467 128-128 128zM170.667 149.333v597.333c0 25.6 17.067 42.667 42.667 42.667h128v-682.667h-128c-25.6 0-42.667 17.067-42.667 42.667zM853.333 149.333c0-25.6-17.067-42.667-42.667-42.667h-384v682.667h384c25.6 0 42.667-17.067 42.667-42.667v-597.333z" />
<glyph unicode="&#xe920;" glyph-name="shopping-cart" d="M341.333 192c-72.533 0-128-55.467-128-128s55.467-128 128-128 128 55.467 128 128-55.467 128-128 128zM341.333 21.333c-25.6 0-42.667 17.067-42.667 42.667s17.067 42.667 42.667 42.667 42.667-17.067 42.667-42.667-17.067-42.667-42.667-42.667zM853.333 192c-72.533 0-128-55.467-128-128s55.467-128 128-128 128 55.467 128 128-55.467 128-128 128zM853.333 21.333c-25.6 0-42.667 17.067-42.667 42.667s17.067 42.667 42.667 42.667 42.667-17.067 42.667-42.667-17.067-42.667-42.667-42.667zM375.467 234.667h448c0 0 0 0 4.267 0 59.733 0 110.933 42.667 123.733 102.4l72.533 358.4c0 12.8 0 25.6-8.533 34.133-8.533 12.8-21.333 17.067-34.133 17.067h-704l-12.8 102.4c-8.533 64-64 110.933-128 110.933h-93.867c-25.6 0-42.667-17.067-42.667-42.667s17.067-42.667 42.667-42.667h93.867c21.333 0 42.667-17.067 42.667-38.4l68.267-490.667c8.533-64 64-110.933 128-110.933zM930.133 661.333l-64-307.2c-4.267-21.333-21.333-34.133-42.667-34.133h-452.267c-21.333 0-38.4 17.067-42.667 38.4l-38.4 302.933h640z" />
<glyph unicode="&#xe921;" glyph-name="shuffle" d="M896 874.667h-213.333c-25.6 0-42.667-17.067-42.667-42.667s17.067-42.667 42.667-42.667h110.933l-652.8-652.8c-17.067-17.067-17.067-42.667 0-59.733 8.533-8.533 17.067-12.8 29.867-12.8s21.333 4.267 29.867 12.8l652.8 652.8v-110.933c0-25.6 17.067-42.667 42.667-42.667s42.667 17.067 42.667 42.667v213.333c0 25.6-17.067 42.667-42.667 42.667zM896 320c-25.6 0-42.667-17.067-42.667-42.667v-110.933l-183.467 183.467c-17.067 17.067-42.667 17.067-59.733 0s-17.067-42.667 0-59.733l183.467-183.467h-110.933c-25.6 0-42.667-17.067-42.667-42.667s17.067-42.667 42.667-42.667h213.333c25.6 0 42.667 17.067 42.667 42.667v213.333c0 25.6-17.067 42.667-42.667 42.667zM354.133 546.133c8.533-8.533 17.067-12.8 29.867-12.8s21.333 4.267 29.867 12.8c17.067 17.067 17.067 42.667 0 59.733l-213.333 213.333c-17.067 17.067-42.667 17.067-59.733 0s-17.067-42.667 0-59.733l213.333-213.333z" />
<glyph unicode="&#xe922;" glyph-name="share-2" d="M768 320c-46.933 0-89.6-17.067-119.467-51.2l-230.4 136.533c4.267 12.8 8.533 29.867 8.533 42.667s-4.267 29.867-8.533 42.667l226.133 132.267c34.133-29.867 76.8-46.933 123.733-46.933 93.867 0 170.667 76.8 170.667 170.667s-76.8 170.667-170.667 170.667-170.667-76.8-170.667-170.667c0-17.067 4.267-29.867 8.533-42.667l-230.4-136.533c-29.867 34.133-72.533 51.2-119.467 51.2-93.867 0-170.667-76.8-170.667-170.667s76.8-170.667 170.667-170.667c46.933 0 89.6 17.067 119.467 51.2l226.133-132.267c-4.267-12.8-8.533-29.867-8.533-42.667 0-93.867 76.8-170.667 170.667-170.667s170.667 76.8 170.667 170.667-72.533 166.4-166.4 166.4zM768 832c46.933 0 85.333-38.4 85.333-85.333s-38.4-85.333-85.333-85.333c-29.867 0-55.467 17.067-72.533 38.4 0 0 0 4.267 0 4.267s0 0-4.267 4.267c-4.267 8.533-8.533 25.6-8.533 38.4 0 46.933 38.4 85.333 85.333 85.333zM256 362.667c-46.933 0-85.333 38.4-85.333 85.333s38.4 85.333 85.333 85.333c29.867 0 55.467-17.067 72.533-38.4 0 0 0-4.267 0-4.267s0 0 4.267-4.267c4.267-8.533 8.533-25.6 8.533-38.4s-4.267-29.867-8.533-38.4c0 0 0 0-4.267-4.267 0 0 0 0 0-4.267-17.067-21.333-42.667-38.4-72.533-38.4zM768 64c-46.933 0-85.333 38.4-85.333 85.333 0 12.8 4.267 25.6 8.533 38.4 0 0 0 0 4.267 4.267 0 0 0 0 0 4.267 17.067 25.6 42.667 38.4 72.533 38.4 46.933 0 85.333-38.4 85.333-85.333s-38.4-85.333-85.333-85.333z" />
<glyph unicode="&#xe923;" glyph-name="share" d="M853.333 490.667c-25.6 0-42.667-17.067-42.667-42.667v-341.333c0-25.6-17.067-42.667-42.667-42.667h-512c-25.6 0-42.667 17.067-42.667 42.667v341.333c0 25.6-17.067 42.667-42.667 42.667s-42.667-17.067-42.667-42.667v-341.333c0-72.533 55.467-128 128-128h512c72.533 0 128 55.467 128 128v341.333c0 25.6-17.067 42.667-42.667 42.667zM371.2 674.133l98.133 98.133v-452.267c0-25.6 17.067-42.667 42.667-42.667s42.667 17.067 42.667 42.667v452.267l98.133-98.133c8.533-8.533 17.067-12.8 29.867-12.8s21.333 4.267 29.867 12.8c17.067 17.067 17.067 42.667 0 59.733l-166.4 166.4c-8.533 8.533-17.067 17.067-34.133 17.067s-25.6-8.533-34.133-17.067l-166.4-166.4c-17.067-17.067-17.067-42.667 0-59.733s42.667-17.067 59.733 0z" />
<glyph unicode="&#xe924;" glyph-name="save" d="M925.867 648.533l-213.333 213.333c-8.533 8.533-17.067 12.8-29.867 12.8h-469.333c-72.533 0-128-55.467-128-128v-597.333c0-72.533 55.467-128 128-128h597.333c72.533 0 128 55.467 128 128v469.333c0 12.8-4.267 21.333-12.8 29.867zM682.667 106.667h-341.333v256h341.333v-256zM853.333 149.333c0-25.6-17.067-42.667-42.667-42.667h-42.667v298.667c0 25.6-17.067 42.667-42.667 42.667h-426.667c-25.6 0-42.667-17.067-42.667-42.667v-298.667h-42.667c-25.6 0-42.667 17.067-42.667 42.667v597.333c0 25.6 17.067 42.667 42.667 42.667h42.667v-170.667c0-25.6 17.067-42.667 42.667-42.667h341.333c25.6 0 42.667 17.067 42.667 42.667s-17.067 42.667-42.667 42.667h-298.667v128h324.267l187.733-187.733v-452.267z" />
<glyph unicode="&#xe925;" glyph-name="scissors" d="M648.533 371.2c-17.067 17.067-42.667 17.067-59.733 0s-17.067-42.667 0-59.733l234.667-234.667c8.533-8.533 17.067-12.8 29.867-12.8s21.333 4.267 29.867 12.8c17.067 17.067 17.067 42.667 0 59.733l-234.667 234.667zM541.867 418.133c0 0 0 0 0 0l341.333 341.333c17.067 17.067 17.067 42.667 0 59.733s-42.667 17.067-59.733 0l-311.467-311.467-110.933 110.933c17.067 25.6 25.6 55.467 25.6 85.333 0 93.867-76.8 170.667-170.667 170.667s-170.667-76.8-170.667-170.667 76.8-170.667 170.667-170.667c29.867 0 59.733 8.533 85.333 25.6l110.933-110.933-110.933-110.933c-25.6 17.067-55.467 25.6-85.333 25.6-93.867 0-170.667-76.8-170.667-170.667s76.8-170.667 170.667-170.667 170.667 76.8 170.667 170.667c0 29.867-8.533 59.733-25.6 85.333l140.8 140.8c0 0 0 0 0 0zM170.667 704c0 46.933 38.4 85.333 85.333 85.333s85.333-38.4 85.333-85.333c0-21.333-8.533-42.667-21.333-59.733 0 0 0 0-4.267 0s0 0 0-4.267c-17.067-12.8-38.4-21.333-59.733-21.333-46.933 0-85.333 38.4-85.333 85.333zM256 106.667c-46.933 0-85.333 38.4-85.333 85.333s38.4 85.333 85.333 85.333c21.333 0 42.667-8.533 59.733-21.333 0 0 0 0 0-4.267 0 0 0 0 4.267 0 12.8-17.067 21.333-38.4 21.333-59.733 0-46.933-38.4-85.333-85.333-85.333z" />
<glyph unicode="&#xe926;" glyph-name="search" d="M925.867 93.867l-192 192c46.933 59.733 76.8 140.8 76.8 226.133 0 200.533-162.133 362.667-362.667 362.667s-362.667-162.133-362.667-362.667 162.133-362.667 362.667-362.667c85.333 0 162.133 29.867 226.133 76.8l192-192c8.533-8.533 17.067-12.8 29.867-12.8s21.333 4.267 29.867 12.8c17.067 17.067 17.067 42.667 0 59.733zM170.667 512c0 153.6 123.733 277.333 277.333 277.333s277.333-123.733 277.333-277.333-123.733-277.333-277.333-277.333-277.333 123.733-277.333 277.333z" />
<glyph unicode="&#xe927;" glyph-name="refresh-ccw" d="M341.333 533.333c0 25.6-17.067 42.667-42.667 42.667h-149.333l119.467 110.933c34.133 38.4 81.067 64 128 81.067 85.333 29.867 179.2 25.6 260.267-12.8 81.067-42.667 145.067-110.933 174.933-196.267 8.533-21.333 34.133-34.133 55.467-25.6s34.133 34.133 25.6 55.467c-38.4 106.667-115.2 192-217.6 243.2-102.4 46.933-217.6 55.467-324.267 17.067-59.733-21.333-115.2-55.467-157.867-98.133l-128-119.467v157.867c0 25.6-17.067 42.667-42.667 42.667s-42.667-17.067-42.667-42.667v-256c0-25.6 17.067-42.667 42.667-42.667h256c25.6 0 42.667 17.067 42.667 42.667zM981.333 405.333h-256c-25.6 0-42.667-17.067-42.667-42.667s17.067-42.667 42.667-42.667h149.333l-123.733-115.2c-132.267-132.267-349.867-132.267-482.133 0-38.4 34.133-64 81.067-81.067 128-8.533 21.333-34.133 34.133-55.467 25.6s-34.133-34.133-25.6-55.467c21.333-59.733 59.733-115.2 102.4-157.867 85.333-81.067 192-123.733 302.933-123.733s217.6 42.667 298.667 123.733l128 119.467v-157.867c0-25.6 17.067-42.667 42.667-42.667s42.667 17.067 42.667 42.667v256c0 25.6-17.067 42.667-42.667 42.667z" />
<glyph unicode="&#xe928;" glyph-name="refresh-cw" d="M981.333 832c-25.6 0-42.667-17.067-42.667-42.667v-162.133l-128 119.467c-42.667 46.933-98.133 81.067-157.867 102.4-106.667 38.4-221.867 34.133-324.267-17.067-102.4-46.933-179.2-132.267-217.6-243.2-8.533-21.333 4.267-46.933 25.6-51.2 21.333-8.533 46.933 4.267 55.467 25.6 29.867 85.333 89.6 153.6 174.933 196.267 81.067 38.4 174.933 42.667 260.267 12.8 46.933-17.067 89.6-42.667 128-81.067l119.467-115.2h-149.333c-25.6 0-42.667-17.067-42.667-42.667s17.067-42.667 42.667-42.667h256c25.6 0 42.667 17.067 42.667 42.667v256c0 25.6-17.067 42.667-42.667 42.667zM891.733 358.4c-21.333 8.533-46.933-4.267-55.467-25.6-17.067-46.933-46.933-93.867-81.067-128-68.267-64-153.6-98.133-243.2-98.133s-174.933 34.133-243.2 93.867l-123.733 119.467h153.6c25.6 0 42.667 17.067 42.667 42.667s-17.067 42.667-42.667 42.667h-256c-25.6 0-42.667-17.067-42.667-42.667v-256c0-25.6 17.067-42.667 42.667-42.667s42.667 17.067 42.667 42.667v153.6l123.733-115.2c81.067-81.067 187.733-123.733 302.933-123.733s221.867 42.667 302.933 123.733c46.933 42.667 81.067 98.133 102.4 157.867 8.533 21.333-4.267 46.933-25.6 55.467z" />
<glyph unicode="&#xe929;" glyph-name="repeat" d="M128 448c25.6 0 42.667 17.067 42.667 42.667v85.333c0 72.533 55.467 128 128 128h494.933l-98.133-98.133c-17.067-17.067-17.067-42.667 0-59.733 8.533-8.533 17.067-12.8 29.867-12.8s21.333 4.267 29.867 12.8l166.4 166.4c8.533 8.533 17.067 17.067 17.067 34.133s-8.533 25.6-17.067 34.133l-166.4 166.4c-17.067 17.067-42.667 17.067-59.733 0s-17.067-42.667 0-59.733l98.133-98.133h-494.933c-119.467 0-213.333-93.867-213.333-213.333v-85.333c0-25.6 17.067-42.667 42.667-42.667zM896 448c-25.6 0-42.667-17.067-42.667-42.667v-85.333c0-72.533-55.467-128-128-128h-494.933l98.133 98.133c17.067 17.067 17.067 42.667 0 59.733s-42.667 17.067-59.733 0l-166.4-166.4c-8.533-8.533-17.067-17.067-17.067-34.133s8.533-25.6 17.067-34.133l166.4-166.4c8.533-8.533 17.067-12.8 29.867-12.8s21.333 4.267 29.867 12.8c17.067 17.067 17.067 42.667 0 59.733l-98.133 98.133h494.933c119.467 0 213.333 93.867 213.333 213.333v85.333c0 25.6-17.067 42.667-42.667 42.667z" />
<glyph unicode="&#xe92a;" glyph-name="rotate-ccw" d="M913.067 588.8c-38.4 106.667-115.2 192-217.6 243.2-102.4 46.933-217.6 55.467-324.267 17.067-59.733-21.333-115.2-55.467-157.867-98.133l-128-119.467v157.867c0 25.6-17.067 42.667-42.667 42.667s-42.667-17.067-42.667-42.667v-256c0-25.6 17.067-42.667 42.667-42.667h256c25.6 0 42.667 17.067 42.667 42.667s-17.067 42.667-42.667 42.667h-149.333l123.733 115.2c34.133 38.4 81.067 64 128 81.067 85.333 29.867 179.2 25.6 260.267-12.8 81.067-42.667 145.067-110.933 174.933-196.267s25.6-179.2-12.8-260.267c-42.667-81.067-110.933-145.067-196.267-174.933-179.2-64-371.2 29.867-435.2 209.067-8.533 21.333-34.133 34.133-55.467 25.6s-34.133-34.133-25.6-55.467c59.733-174.933 226.133-285.867 401.067-285.867 46.933 0 93.867 8.533 140.8 21.333 221.867 81.067 337.067 324.267 260.267 546.133z" />
<glyph unicode="&#xe92b;" glyph-name="rotate-cw" d="M981.333 832c-25.6 0-42.667-17.067-42.667-42.667v-153.6l-123.733 115.2c-42.667 46.933-98.133 81.067-157.867 102.4-221.867 76.8-469.333-38.4-546.133-260.267s38.4-469.333 260.267-546.133c46.933-17.067 93.867-25.6 140.8-25.6 174.933 0 341.333 110.933 401.067 285.867 8.533 21.333-4.267 46.933-25.6 55.467s-46.933-4.267-55.467-25.6c-64-179.2-256-273.067-435.2-209.067-174.933 59.733-268.8 256-204.8 435.2 59.733 174.933 256 268.8 435.2 213.333 46.933-17.067 89.6-42.667 128-81.067l123.733-119.467h-153.6c-25.6 0-42.667-17.067-42.667-42.667s17.067-42.667 42.667-42.667h256c25.6 0 42.667 17.067 42.667 42.667v256c0 25.6-17.067 42.667-42.667 42.667z" />
<glyph unicode="&#xe92c;" glyph-name="printer" d="M853.333 618.667h-42.667v256c0 25.6-17.067 42.667-42.667 42.667h-512c-25.6 0-42.667-17.067-42.667-42.667v-256h-42.667c-72.533 0-128-55.467-128-128v-213.333c0-72.533 55.467-128 128-128h42.667v-128c0-25.6 17.067-42.667 42.667-42.667h512c25.6 0 42.667 17.067 42.667 42.667v128h42.667c72.533 0 128 55.467 128 128v213.333c0 72.533-55.467 128-128 128zM298.667 832h426.667v-213.333h-426.667v213.333zM725.333 64h-426.667v256h426.667v-256zM896 277.333c0-25.6-17.067-42.667-42.667-42.667h-42.667v128c0 25.6-17.067 42.667-42.667 42.667h-512c-25.6 0-42.667-17.067-42.667-42.667v-128h-42.667c-25.6 0-42.667 17.067-42.667 42.667v213.333c0 25.6 17.067 42.667 42.667 42.667h682.667c25.6 0 42.667-17.067 42.667-42.667v-213.333z" />
<glyph unicode="&#xe92d;" glyph-name="plus-circle" d="M512 917.333c-260.267 0-469.333-209.067-469.333-469.333s209.067-469.333 469.333-469.333 469.333 209.067 469.333 469.333-209.067 469.333-469.333 469.333zM512 64c-213.333 0-384 170.667-384 384s170.667 384 384 384 384-170.667 384-384-170.667-384-384-384zM682.667 490.667h-128v128c0 25.6-17.067 42.667-42.667 42.667s-42.667-17.067-42.667-42.667v-128h-128c-25.6 0-42.667-17.067-42.667-42.667s17.067-42.667 42.667-42.667h128v-128c0-25.6 17.067-42.667 42.667-42.667s42.667 17.067 42.667 42.667v128h128c25.6 0 42.667 17.067 42.667 42.667s-17.067 42.667-42.667 42.667z" />
<glyph unicode="&#xe92e;" glyph-name="plus-square" d="M810.667 874.667h-597.333c-72.533 0-128-55.467-128-128v-597.333c0-72.533 55.467-128 128-128h597.333c72.533 0 128 55.467 128 128v597.333c0 72.533-55.467 128-128 128zM853.333 149.333c0-25.6-17.067-42.667-42.667-42.667h-597.333c-25.6 0-42.667 17.067-42.667 42.667v597.333c0 25.6 17.067 42.667 42.667 42.667h597.333c25.6 0 42.667-17.067 42.667-42.667v-597.333zM682.667 490.667h-128v128c0 25.6-17.067 42.667-42.667 42.667s-42.667-17.067-42.667-42.667v-128h-128c-25.6 0-42.667-17.067-42.667-42.667s17.067-42.667 42.667-42.667h128v-128c0-25.6 17.067-42.667 42.667-42.667s42.667 17.067 42.667 42.667v128h128c25.6 0 42.667 17.067 42.667 42.667s-17.067 42.667-42.667 42.667z" />
<glyph unicode="&#xe92f;" glyph-name="plus" d="M810.667 490.667h-256v256c0 25.6-17.067 42.667-42.667 42.667s-42.667-17.067-42.667-42.667v-256h-256c-25.6 0-42.667-17.067-42.667-42.667s17.067-42.667 42.667-42.667h256v-256c0-25.6 17.067-42.667 42.667-42.667s42.667 17.067 42.667 42.667v256h256c25.6 0 42.667 17.067 42.667 42.667s-17.067 42.667-42.667 42.667z" />
<glyph unicode="&#xe930;" glyph-name="phone-forwarded" d="M1024 746.667c0 17.067-8.533 25.6-17.067 34.133l-166.4 166.4c-17.067 17.067-42.667 17.067-59.733 0s-17.067-42.667 0-59.733l98.133-98.133h-238.933c-25.6 0-42.667-17.067-42.667-42.667s17.067-42.667 42.667-42.667h238.933l-98.133-98.133c-17.067-17.067-17.067-42.667 0-59.733 8.533-8.533 17.067-12.8 29.867-12.8s21.333 4.267 29.867 12.8l166.4 166.4c8.533 8.533 17.067 17.067 17.067 34.133zM870.4 366.933c-38.4 4.267-76.8 12.8-110.933 25.6-46.933 17.067-102.4 4.267-136.533-29.867l-29.867-29.867c-81.067 51.2-145.067 119.467-196.267 196.267l29.867 29.867c34.133 38.4 46.933 89.6 29.867 136.533-12.8 34.133-21.333 72.533-25.6 110.933-8.533 64-64 110.933-128 110.933h-128c-4.267 0-8.533 0-12.8 0-34.133-4.267-64-21.333-85.333-46.933s-29.867-59.733-29.867-93.867c12.8-136.533 59.733-273.067 136.533-388.267 68.267-106.667 162.133-200.533 268.8-268.8 115.2-72.533 251.733-119.467 388.267-136.533 4.267 0 8.533 0 12.8 0 34.133 0 64 17.067 89.6 38.4s38.4 55.467 38.4 89.6v128c0 64-46.933 119.467-110.933 128zM896 110.933c0-12.8-4.267-21.333-12.8-29.867s-17.067-12.8-34.133-12.8c-123.733 12.8-243.2 55.467-349.867 123.733-98.133 59.733-179.2 145.067-243.2 243.2-68.267 106.667-110.933 226.133-123.733 349.867 0 12.8 4.267 21.333 8.533 29.867 8.533 8.533 21.333 17.067 34.133 17.067h128c21.333 0 42.667-17.067 42.667-38.4 8.533-42.667 17.067-85.333 34.133-128 4.267-12.8 0-34.133-8.533-42.667l-55.467-55.467c-12.8-12.8-17.067-34.133-12.8-51.2 64-115.2 157.867-209.067 273.067-273.067 17.067-8.533 38.4-4.267 51.2 8.533l55.467 55.467c12.8 12.8 29.867 12.8 46.933 8.533 42.667-17.067 85.333-29.867 128-34.133 21.333-4.267 38.4-21.333 38.4-42.667v-128z" />
<glyph unicode="&#xe931;" glyph-name="phone-incoming" d="M1011.2 947.2c-17.067 17.067-42.667 17.067-59.733 0l-226.133-226.133v153.6c0 25.6-17.067 42.667-42.667 42.667s-42.667-17.067-42.667-42.667v-256c0-25.6 17.067-42.667 42.667-42.667h256c25.6 0 42.667 17.067 42.667 42.667s-17.067 42.667-42.667 42.667h-153.6l226.133 226.133c17.067 17.067 17.067 42.667 0 59.733zM870.4 366.933c-38.4 4.267-76.8 12.8-110.933 25.6-46.933 17.067-102.4 4.267-136.533-29.867l-29.867-29.867c-81.067 51.2-145.067 119.467-196.267 196.267l29.867 29.867c34.133 38.4 46.933 89.6 29.867 136.533-12.8 34.133-21.333 72.533-25.6 110.933-8.533 64-64 110.933-128 110.933h-128c-4.267 0-8.533 0-12.8 0-34.133-4.267-64-21.333-85.333-46.933s-29.867-59.733-29.867-93.867c12.8-136.533 59.733-273.067 136.533-388.267 68.267-106.667 162.133-200.533 268.8-268.8 115.2-72.533 251.733-119.467 388.267-136.533 4.267 0 8.533 0 12.8 0 34.133 0 64 17.067 89.6 38.4s38.4 55.467 38.4 89.6v128c0 64-46.933 119.467-110.933 128zM896 110.933c0-12.8-4.267-21.333-12.8-29.867s-17.067-12.8-34.133-12.8c-123.733 12.8-243.2 55.467-349.867 123.733-98.133 59.733-179.2 145.067-243.2 243.2-68.267 106.667-110.933 226.133-123.733 349.867 0 12.8 4.267 21.333 8.533 29.867 8.533 8.533 21.333 17.067 34.133 17.067h128c21.333 0 42.667-17.067 42.667-38.4 8.533-42.667 17.067-85.333 34.133-128 4.267-12.8 0-34.133-8.533-42.667l-55.467-55.467c-12.8-12.8-17.067-34.133-12.8-51.2 64-115.2 157.867-209.067 273.067-273.067 17.067-8.533 38.4-4.267 51.2 8.533l55.467 55.467c12.8 12.8 29.867 12.8 46.933 8.533 42.667-17.067 85.333-29.867 128-34.133 21.333-4.267 38.4-21.333 38.4-42.667v-128z" />
<glyph unicode="&#xe932;" glyph-name="phone-missed" d="M913.067 789.333l98.133 98.133c17.067 17.067 17.067 42.667 0 59.733s-42.667 17.067-59.733 0l-98.133-98.133-98.133 98.133c-17.067 17.067-42.667 17.067-59.733 0s-17.067-42.667 0-59.733l98.133-98.133-98.133-98.133c-17.067-17.067-17.067-42.667 0-59.733 8.533-8.533 17.067-12.8 29.867-12.8s21.333 4.267 29.867 12.8l98.133 98.133 98.133-98.133c8.533-8.533 17.067-12.8 29.867-12.8s21.333 4.267 29.867 12.8c17.067 17.067 17.067 42.667 0 59.733l-98.133 98.133zM870.4 366.933c-38.4 4.267-76.8 12.8-110.933 25.6-46.933 17.067-102.4 4.267-136.533-29.867l-29.867-29.867c-81.067 51.2-145.067 119.467-196.267 196.267l29.867 29.867c34.133 38.4 46.933 89.6 29.867 136.533-12.8 34.133-21.333 72.533-25.6 110.933-8.533 64-64 110.933-128 110.933h-128c-4.267 0-8.533 0-12.8 0-34.133-4.267-64-21.333-85.333-46.933s-29.867-59.733-29.867-93.867c12.8-136.533 59.733-273.067 136.533-388.267 68.267-106.667 162.133-200.533 268.8-268.8 115.2-72.533 251.733-119.467 388.267-136.533 4.267 0 8.533 0 12.8 0 34.133 0 64 17.067 89.6 38.4s38.4 55.467 38.4 89.6v128c0 64-46.933 119.467-110.933 128zM896 110.933c0-12.8-4.267-21.333-12.8-29.867s-17.067-12.8-34.133-12.8c-123.733 12.8-243.2 55.467-349.867 123.733-98.133 59.733-179.2 145.067-243.2 243.2-68.267 106.667-110.933 226.133-123.733 349.867 0 12.8 4.267 21.333 8.533 29.867 8.533 8.533 21.333 17.067 34.133 17.067h128c21.333 0 42.667-17.067 42.667-38.4 8.533-42.667 17.067-85.333 34.133-128 4.267-12.8 0-34.133-8.533-42.667l-55.467-55.467c-12.8-12.8-17.067-34.133-12.8-51.2 64-115.2 157.867-209.067 273.067-273.067 17.067-8.533 38.4-4.267 51.2 8.533l55.467 55.467c12.8 12.8 29.867 12.8 46.933 8.533 42.667-17.067 85.333-29.867 128-34.133 21.333-4.267 38.4-21.333 38.4-42.667v-128z" />
<glyph unicode="&#xe933;" glyph-name="phone-off" d="M187.733 392.533c8.533-12.8 21.333-21.333 34.133-21.333 8.533 0 17.067 0 21.333 4.267 21.333 12.8 25.6 38.4 12.8 59.733-68.267 106.667-110.933 226.133-123.733 349.867 0 12.8 4.267 21.333 8.533 29.867 8.533 8.533 21.333 17.067 34.133 17.067h128c21.333 0 38.4-17.067 42.667-38.4 8.533-42.667 17.067-85.333 34.133-128 4.267-12.8 0-34.133-12.8-46.933l-55.467-55.467c-17.067-17.067-17.067-42.667 0-59.733s42.667-17.067 59.733 0l55.467 55.467c34.133 38.4 46.933 89.6 29.867 136.533-12.8 34.133-21.333 72.533-25.6 110.933-8.533 64-64 110.933-128 110.933h-128c-4.267 0-8.533 0-12.8 0-34.133-4.267-64-21.333-85.333-46.933s-29.867-59.733-25.6-89.6c12.8-140.8 59.733-273.067 136.533-388.267zM1011.2 947.2c-17.067 17.067-42.667 17.067-59.733 0l-938.667-938.667c-17.067-17.067-17.067-42.667 0-59.733 8.533-8.533 17.067-12.8 29.867-12.8s21.333 4.267 29.867 12.8l260.267 260.267c38.4-34.133 76.8-64 119.467-89.6 115.2-72.533 251.733-119.467 388.267-136.533 4.267 0 8.533 0 12.8 0 34.133 0 64 21.333 89.6 42.667s38.4 55.467 38.4 89.6v128c0 64-46.933 119.467-110.933 128-38.4 4.267-76.8 12.8-110.933 25.6-46.933 17.067-102.4 4.267-136.533-29.867l-29.867-29.867c-25.6 17.067-51.2 34.133-76.8 55.467l494.933 494.933c17.067 17.067 17.067 42.667 0 59.733zM576 243.2c17.067-8.533 38.4-4.267 51.2 8.533l55.467 55.467c12.8 12.8 29.867 12.8 46.933 8.533 42.667-17.067 85.333-29.867 128-34.133 21.333-4.267 38.4-21.333 38.4-42.667v-128c0-12.8-4.267-21.333-12.8-29.867s-17.067-12.8-34.133-12.8c-123.733 12.8-243.2 55.467-349.867 123.733-38.4 21.333-72.533 46.933-106.667 76.8l64 64c38.4-34.133 81.067-64 119.467-89.6z" />
<glyph unicode="&#xe934;" glyph-name="phone-outgoing" d="M981.333 960h-256c-25.6 0-42.667-17.067-42.667-42.667s17.067-42.667 42.667-42.667h153.6l-226.133-226.133c-17.067-17.067-17.067-42.667 0-59.733 8.533-8.533 17.067-12.8 29.867-12.8s21.333 4.267 29.867 12.8l226.133 226.133v-153.6c0-25.6 17.067-42.667 42.667-42.667s42.667 17.067 42.667 42.667v256c0 25.6-17.067 42.667-42.667 42.667zM870.4 366.933c-38.4 4.267-76.8 12.8-110.933 25.6-46.933 17.067-102.4 4.267-136.533-29.867l-29.867-29.867c-81.067 51.2-145.067 119.467-196.267 196.267l29.867 29.867c34.133 38.4 46.933 89.6 29.867 136.533-12.8 34.133-21.333 72.533-25.6 110.933-8.533 64-64 110.933-128 110.933h-128c-4.267 0-8.533 0-12.8 0-34.133-4.267-64-21.333-85.333-46.933s-29.867-59.733-29.867-93.867c12.8-136.533 59.733-273.067 136.533-388.267 68.267-106.667 162.133-200.533 268.8-268.8 115.2-72.533 251.733-119.467 388.267-136.533 4.267 0 8.533 0 12.8 0 34.133 0 64 17.067 89.6 38.4s38.4 55.467 38.4 89.6v128c0 64-46.933 119.467-110.933 128zM896 110.933c0-12.8-4.267-21.333-12.8-29.867s-17.067-12.8-34.133-12.8c-123.733 12.8-243.2 55.467-349.867 123.733-98.133 59.733-179.2 145.067-243.2 243.2-68.267 106.667-110.933 226.133-123.733 349.867 0 12.8 4.267 21.333 8.533 29.867 8.533 8.533 21.333 17.067 34.133 17.067h128c21.333 0 42.667-17.067 42.667-38.4 8.533-42.667 17.067-85.333 34.133-128 4.267-12.8 0-34.133-8.533-42.667l-55.467-55.467c-12.8-12.8-17.067-34.133-12.8-51.2 64-115.2 157.867-209.067 273.067-273.067 17.067-8.533 38.4-4.267 51.2 8.533l55.467 55.467c12.8 12.8 29.867 12.8 46.933 8.533 42.667-17.067 85.333-29.867 128-34.133 21.333-4.267 38.4-21.333 38.4-42.667v-128z" />
<glyph unicode="&#xe935;" glyph-name="package" d="M913.067 768l-341.333 170.667c-38.4 17.067-81.067 17.067-115.2 0l-341.333-170.667c-25.6-12.8-42.667-29.867-55.467-51.2 0 0 0 0 0 0s0 0 0 0c-12.8-21.333-17.067-42.667-17.067-64v-409.6c0-46.933 29.867-93.867 72.533-115.2l341.333-170.667c17.067-8.533 34.133-12.8 55.467-12.8s38.4 4.267 59.733 17.067l341.333 170.667c46.933 21.333 72.533 68.267 72.533 115.2v405.333c0 51.2-29.867 93.867-72.533 115.2zM494.933 861.867c4.267 4.267 8.533 4.267 17.067 4.267s12.8-4.267 17.067-4.267l315.733-157.867-119.467-59.733-332.8 166.4 102.4 51.2zM512 537.6l-332.8 166.4 119.467 59.733 332.8-166.4-119.467-59.733zM149.333 209.067c-12.8 8.533-21.333 21.333-21.333 38.4v388.267l341.333-170.667v-413.867l-320 157.867zM870.4 209.067l-315.733-157.867v418.133l174.933 85.333c8.533 0 21.333 4.267 25.6 12.8l140.8 72.533v-392.533c0-17.067-12.8-29.867-25.6-38.4z" />
<glyph unicode="&#xe936;" glyph-name="move" d="M981.333 448c0 17.067-8.533 25.6-17.067 34.133l-123.733 123.733c-17.067 17.067-42.667 17.067-59.733 0s-17.067-42.667 0-59.733l55.467-55.467h-281.6v281.6l55.467-55.467c8.533-8.533 17.067-12.8 29.867-12.8s21.333 4.267 29.867 12.8c17.067 17.067 17.067 42.667 0 59.733l-123.733 123.733c-8.533 8.533-17.067 17.067-34.133 17.067s-25.6-8.533-34.133-17.067l-123.733-123.733c-17.067-17.067-17.067-42.667 0-59.733s42.667-17.067 59.733 0l55.467 55.467v-281.6h-281.6l55.467 55.467c17.067 17.067 17.067 42.667 0 59.733s-42.667 17.067-59.733 0l-123.733-123.733c-8.533-8.533-17.067-17.067-17.067-34.133s8.533-25.6 17.067-34.133l123.733-123.733c8.533-8.533 17.067-12.8 29.867-12.8s21.333 4.267 29.867 12.8c17.067 17.067 17.067 42.667 0 59.733l-55.467 55.467h281.6v-281.6l-55.467 55.467c-17.067 17.067-42.667 17.067-59.733 0s-17.067-42.667 0-59.733l123.733-123.733c8.533-12.8 17.067-17.067 34.133-17.067s25.6 8.533 34.133 17.067l123.733 123.733c17.067 17.067 17.067 42.667 0 59.733s-42.667 17.067-59.733 0l-55.467-55.467v281.6h281.6l-55.467-55.467c-17.067-17.067-17.067-42.667 0-59.733 8.533-8.533 17.067-12.8 29.867-12.8s21.333 4.267 29.867 12.8l123.733 123.733c8.533 8.533 17.067 17.067 17.067 34.133z" />
<glyph unicode="&#xe937;" glyph-name="music" d="M921.6 866.133c-8.533 8.533-21.333 8.533-34.133 8.533l-512-85.333c-17.067-4.267-34.133-21.333-34.133-42.667v-469.333h-128c-72.533 0-128-55.467-128-128s55.467-128 128-128h85.333c72.533 0 128 55.467 128 128v563.2l426.667 68.267v-418.133h-128c-72.533 0-128-55.467-128-128s55.467-128 128-128h85.333c72.533 0 128 55.467 128 128v597.333c0 12.8-4.267 25.6-17.067 34.133zM341.333 149.333c0-25.6-17.067-42.667-42.667-42.667h-85.333c-25.6 0-42.667 17.067-42.667 42.667s17.067 42.667 42.667 42.667h128v-42.667zM853.333 234.667c0-25.6-17.067-42.667-42.667-42.667h-85.333c-25.6 0-42.667 17.067-42.667 42.667s17.067 42.667 42.667 42.667h128v-42.667z" />
<glyph unicode="&#xe938;" glyph-name="monitor" d="M853.333 874.667h-682.667c-72.533 0-128-55.467-128-128v-426.667c0-72.533 55.467-128 128-128h298.667v-85.333h-128c-25.6 0-42.667-17.067-42.667-42.667s17.067-42.667 42.667-42.667h341.333c25.6 0 42.667 17.067 42.667 42.667s-17.067 42.667-42.667 42.667h-128v85.333h298.667c72.533 0 128 55.467 128 128v426.667c0 72.533-55.467 128-128 128zM896 320c0-25.6-17.067-42.667-42.667-42.667h-682.667c-25.6 0-42.667 17.067-42.667 42.667v426.667c0 25.6 17.067 42.667 42.667 42.667h682.667c25.6 0 42.667-17.067 42.667-42.667v-426.667z" />
<glyph unicode="&#xe939;" glyph-name="minimize-2" d="M426.667 405.333h-256c-25.6 0-42.667-17.067-42.667-42.667s17.067-42.667 42.667-42.667h153.6l-226.133-226.133c-17.067-17.067-17.067-42.667 0-59.733 8.533-8.533 17.067-12.8 29.867-12.8s21.333 4.267 29.867 12.8l226.133 226.133v-153.6c0-25.6 17.067-42.667 42.667-42.667s42.667 17.067 42.667 42.667v256c0 25.6-17.067 42.667-42.667 42.667zM925.867 861.867c-17.067 17.067-42.667 17.067-59.733 0l-226.133-226.133v153.6c0 25.6-17.067 42.667-42.667 42.667s-42.667-17.067-42.667-42.667v-256c0-25.6 17.067-42.667 42.667-42.667h256c25.6 0 42.667 17.067 42.667 42.667s-17.067 42.667-42.667 42.667h-153.6l226.133 226.133c17.067 17.067 17.067 42.667 0 59.733z" />
<glyph unicode="&#xe93a;" glyph-name="mic" d="M512 277.333c93.867 0 170.667 76.8 170.667 170.667v341.333c0 93.867-76.8 170.667-170.667 170.667s-170.667-76.8-170.667-170.667v-341.333c0-93.867 76.8-170.667 170.667-170.667zM426.667 789.333c0 46.933 38.4 85.333 85.333 85.333s85.333-38.4 85.333-85.333v-341.333c0-46.933-38.4-85.333-85.333-85.333s-85.333 38.4-85.333 85.333v341.333zM810.667 576c-25.6 0-42.667-17.067-42.667-42.667v-85.333c0-140.8-115.2-256-256-256s-256 115.2-256 256v85.333c0 25.6-17.067 42.667-42.667 42.667s-42.667-17.067-42.667-42.667v-85.333c0-174.933 132.267-315.733 298.667-337.067v-89.6h-128c-25.6 0-42.667-17.067-42.667-42.667s17.067-42.667 42.667-42.667h341.333c25.6 0 42.667 17.067 42.667 42.667s-17.067 42.667-42.667 42.667h-128v89.6c166.4 21.333 298.667 166.4 298.667 337.067v85.333c0 25.6-17.067 42.667-42.667 42.667z" />
<glyph unicode="&#xe93b;" glyph-name="mic-off" d="M1011.2 8.533l-247.467 247.467c0 4.267-4.267 8.533-8.533 12.8s-8.533 8.533-12.8 8.533l-324.267 324.267c0 4.267-4.267 8.533-8.533 8.533l-337.067 337.067c-17.067 17.067-42.667 17.067-59.733 0s-17.067-42.667 0-59.733l328.533-328.533v-110.933c0-46.933 17.067-89.6 51.2-119.467 29.867-34.133 72.533-51.2 119.467-51.2 29.867 0 59.733 8.533 85.333 25.6l64-64c-42.667-29.867-93.867-46.933-145.067-46.933 0 0 0 0-4.267 0 0 0 0 0 0 0-64 0-128 25.6-179.2 72.533s-76.8 115.2-76.8 183.467v85.333c0 25.6-17.067 42.667-42.667 42.667s-42.667-17.067-42.667-42.667v-85.333c0-93.867 38.4-183.467 102.4-243.2 55.467-51.2 123.733-85.333 196.267-93.867v-89.6h-128c-25.6 0-42.667-17.067-42.667-42.667s17.067-42.667 42.667-42.667h341.333c25.6 0 42.667 17.067 42.667 42.667s-17.067 42.667-42.667 42.667h-128v89.6c59.733 8.533 119.467 29.867 166.4 68.267l230.4-230.4c8.533-8.533 17.067-12.8 29.867-12.8s21.333 4.267 29.867 12.8c17.067 17.067 17.067 42.667 0 59.733zM512 362.667c-21.333 0-42.667 8.533-59.733 25.6s-25.6 38.4-25.6 59.733v25.6l106.667-106.667c-8.533-4.267-12.8-4.267-21.333-4.267zM379.733 772.267c21.333-4.267 42.667 12.8 46.933 34.133 8.533 38.4 46.933 68.267 85.333 68.267 21.333 0 42.667-8.533 59.733-25.6s25.6-38.4 25.6-59.733v-226.133c0-25.6 17.067-42.667 42.667-42.667s42.667 17.067 42.667 42.667v226.133c0 46.933-17.067 89.6-51.2 119.467-29.867 34.133-72.533 51.2-119.467 51.2-81.067 0-149.333-55.467-166.4-136.533-4.267-21.333 8.533-46.933 34.133-51.2zM797.867 354.133c4.267 0 4.267 0 8.533 0 21.333 0 38.4 12.8 42.667 34.133s4.267 38.4 4.267 59.733v85.333c0 25.6-17.067 42.667-42.667 42.667s-42.667-17.067-42.667-42.667v-85.333c0-17.067 0-29.867-4.267-42.667-4.267-25.6 12.8-46.933 34.133-51.2z" />
<glyph unicode="&#xe93c;" glyph-name="maximize-2" d="M896 874.667h-256c-25.6 0-42.667-17.067-42.667-42.667s17.067-42.667 42.667-42.667h153.6l-226.133-226.133c-17.067-17.067-17.067-42.667 0-59.733 8.533-8.533 17.067-12.8 29.867-12.8s21.333 4.267 29.867 12.8l226.133 226.133v-153.6c0-25.6 17.067-42.667 42.667-42.667s42.667 17.067 42.667 42.667v256c0 25.6-17.067 42.667-42.667 42.667zM396.8 392.533l-226.133-226.133v153.6c0 25.6-17.067 42.667-42.667 42.667s-42.667-17.067-42.667-42.667v-256c0-25.6 17.067-42.667 42.667-42.667h256c25.6 0 42.667 17.067 42.667 42.667s-17.067 42.667-42.667 42.667h-153.6l226.133 226.133c17.067 17.067 17.067 42.667 0 59.733s-42.667 17.067-59.733 0z" />
<glyph unicode="&#xe93d;" glyph-name="map" d="M1002.667 908.8c-12.8 8.533-29.867 8.533-42.667 0l-277.333-157.867-315.733 157.867c-4.267 4.267-12.8 8.533-25.6 8.533-8.533 0-12.8 0-17.067-4.267 0 0 0 0-4.267 0l-298.667-170.667c-12.8-8.533-21.333-21.333-21.333-38.4v-682.667c0-17.067 8.533-29.867 21.333-34.133 12.8-8.533 29.867-8.533 42.667 0l277.333 157.867 315.733-157.867c4.267-4.267 8.533-4.267 12.8-8.533 4.267 0 8.533-4.267 12.8-4.267 8.533 0 12.8 0 21.333 4.267l298.667 170.667c12.8 8.533 21.333 21.333 21.333 38.4v686.933c0 17.067-8.533 29.867-21.333 34.133zM384 806.4l256-128v-593.067l-256 128v593.067zM85.333 678.4l213.333 123.733v-588.8l-213.333-119.467v584.533zM934.4 213.333l-209.067-119.467v588.8l209.067 119.467v-588.8z" />
<glyph unicode="&#xe93e;" glyph-name="mail" d="M853.333 832h-682.667c-72.533 0-128-55.467-128-128v-512c0-72.533 55.467-128 128-128h682.667c72.533 0 128 55.467 128 128v512c0 72.533-55.467 128-128 128zM170.667 746.667h682.667c17.067 0 34.133-8.533 38.4-21.333l-379.733-268.8-379.733 268.8c4.267 12.8 21.333 21.333 38.4 21.333zM853.333 149.333h-682.667c-25.6 0-42.667 17.067-42.667 42.667v430.933l358.4-251.733c8.533-4.267 17.067-8.533 25.6-8.533s17.067 4.267 25.6 8.533l358.4 251.733v-430.933c0-25.6-17.067-42.667-42.667-42.667z" />
<glyph unicode="&#xe93f;" glyph-name="log-in" d="M810.667 917.333h-213.333c-25.6 0-42.667-17.067-42.667-42.667s17.067-42.667 42.667-42.667h213.333c25.6 0 42.667-17.067 42.667-42.667v-682.667c0-25.6-17.067-42.667-42.667-42.667h-213.333c-25.6 0-42.667-17.067-42.667-42.667s17.067-42.667 42.667-42.667h213.333c72.533 0 128 55.467 128 128v682.667c0 72.533-55.467 128-128 128zM682.667 448c0 17.067-8.533 25.6-17.067 34.133l-166.4 166.4c-17.067 17.067-42.667 17.067-59.733 0s-17.067-42.667 0-59.733l98.133-98.133h-409.6c-25.6 0-42.667-17.067-42.667-42.667s17.067-42.667 42.667-42.667h409.6l-98.133-98.133c-17.067-17.067-17.067-42.667 0-59.733 8.533-8.533 17.067-12.8 29.867-12.8s21.333 4.267 29.867 12.8l166.4 166.4c8.533 8.533 17.067 17.067 17.067 34.133z" />
<glyph unicode="&#xe940;" glyph-name="log-out" d="M426.667 64h-213.333c-25.6 0-42.667 17.067-42.667 42.667v682.667c0 25.6 17.067 42.667 42.667 42.667h213.333c25.6 0 42.667 17.067 42.667 42.667s-17.067 42.667-42.667 42.667h-213.333c-72.533 0-128-55.467-128-128v-682.667c0-72.533 55.467-128 128-128h213.333c25.6 0 42.667 17.067 42.667 42.667s-17.067 42.667-42.667 42.667zM938.667 448c0 17.067-8.533 25.6-17.067 34.133l-166.4 166.4c-17.067 17.067-42.667 17.067-59.733 0s-17.067-42.667 0-59.733l98.133-98.133h-409.6c-25.6 0-42.667-17.067-42.667-42.667s17.067-42.667 42.667-42.667h409.6l-98.133-98.133c-17.067-17.067-17.067-42.667 0-59.733 8.533-8.533 17.067-12.8 29.867-12.8s21.333 4.267 29.867 12.8l166.4 166.4c8.533 8.533 17.067 17.067 17.067 34.133z" />
<glyph unicode="&#xe941;" glyph-name="lock" d="M810.667 533.333h-42.667v128c0 140.8-115.2 256-256 256s-256-115.2-256-256v-128h-42.667c-72.533 0-128-55.467-128-128v-298.667c0-72.533 55.467-128 128-128h597.333c72.533 0 128 55.467 128 128v298.667c0 72.533-55.467 128-128 128zM341.333 661.333c0 93.867 76.8 170.667 170.667 170.667s170.667-76.8 170.667-170.667v-128h-341.333v128zM853.333 106.667c0-25.6-17.067-42.667-42.667-42.667h-597.333c-25.6 0-42.667 17.067-42.667 42.667v298.667c0 25.6 17.067 42.667 42.667 42.667h597.333c25.6 0 42.667-17.067 42.667-42.667v-298.667z" />
<glyph unicode="&#xe942;" glyph-name="life-buoy" d="M849.067 119.467c81.067 85.333 132.267 200.533 132.267 328.533 0 260.267-209.067 469.333-469.333 469.333-128 0-243.2-51.2-328.533-132.267 0 0-4.267 0-4.267-4.267s0-4.267-4.267-4.267c-81.067-85.333-132.267-200.533-132.267-328.533s51.2-243.2 132.267-328.533c0 0 0-4.267 4.267-4.267 0 0 4.267-4.267 4.267-4.267 85.333-81.067 200.533-132.267 328.533-132.267s243.2 51.2 328.533 132.267c0 0 4.267 0 4.267 4.267 0 0 0 4.267 4.267 4.267zM810.667 209.067l-123.733 123.733c25.6 29.867 38.4 72.533 38.4 115.2s-12.8 85.333-34.133 119.467l119.467 119.467c51.2-64 85.333-149.333 85.333-238.933s-29.867-174.933-85.333-238.933zM384 448c0 72.533 55.467 128 128 128 34.133 0 64-12.8 85.333-29.867 0-4.267 4.267-4.267 4.267-8.533 4.267-4.267 4.267-4.267 8.533-4.267 21.333-21.333 29.867-51.2 29.867-85.333 0-72.533-55.467-128-128-128s-128 55.467-128 128zM750.933 746.667v0l-123.733-123.733c-29.867 25.6-72.533 38.4-115.2 38.4s-85.333-12.8-119.467-34.133l-119.467 119.467c64 55.467 149.333 85.333 238.933 85.333s174.933-29.867 238.933-85.333zM213.333 686.933l123.733-123.733c-25.6-29.867-38.4-72.533-38.4-115.2s12.8-85.333 34.133-119.467l-119.467-119.467c-51.2 64-85.333 149.333-85.333 238.933s29.867 174.933 85.333 238.933zM273.067 149.333l123.733 123.733c29.867-25.6 72.533-38.4 115.2-38.4s85.333 12.8 119.467 34.133l123.733-123.733c-64-51.2-149.333-85.333-238.933-85.333s-179.2 34.133-243.2 89.6z" />
<glyph unicode="&#xe943;" glyph-name="layout" d="M810.667 874.667h-597.333c-72.533 0-128-55.467-128-128v-597.333c0-72.533 55.467-128 128-128h597.333c72.533 0 128 55.467 128 128v597.333c0 72.533-55.467 128-128 128zM213.333 789.333h597.333c25.6 0 42.667-17.067 42.667-42.667v-128h-682.667v128c0 25.6 17.067 42.667 42.667 42.667zM170.667 149.333v384h170.667v-426.667h-128c-25.6 0-42.667 17.067-42.667 42.667zM810.667 106.667h-384v426.667h426.667v-384c0-25.6-17.067-42.667-42.667-42.667z" />
<glyph unicode="&#xe944;" glyph-name="italic" d="M810.667 832h-157.867c-8.533 4.267-17.067 4.267-25.6 0h-200.533c-25.6 0-42.667-17.067-42.667-42.667s17.067-42.667 42.667-42.667h149.333l-226.133-597.333h-136.533c-25.6 0-42.667-17.067-42.667-42.667s17.067-42.667 42.667-42.667h384c25.6 0 42.667 17.067 42.667 42.667s-17.067 42.667-42.667 42.667h-153.6l221.867 597.333h145.067c25.6 0 42.667 17.067 42.667 42.667s-17.067 42.667-42.667 42.667z" />
<glyph unicode="&#xe945;" glyph-name="inbox" d="M977.067 422.4l-149.333 332.8c-17.067 46.933-64 76.8-115.2 76.8h-401.067c-51.2 0-98.133-29.867-115.2-76.8l-145.067-324.267c-4.267-4.267-4.267-8.533-4.267-12.8-4.267-4.267-4.267-8.533-4.267-12.8v-213.333c0-72.533 55.467-128 128-128h682.667c72.533 0 128 55.467 128 128v213.333c0 4.267 0 12.8-4.267 17.067zM273.067 721.067c4.267 17.067 21.333 25.6 38.4 25.6h401.067c17.067 0 34.133-8.533 38.4-25.6l123.733-273.067h-196.267c-12.8 0-25.6-4.267-34.133-17.067l-72.533-110.933h-123.733l-72.533 110.933c-8.533 8.533-21.333 17.067-34.133 17.067h-192l123.733 273.067zM853.333 149.333h-682.667c-25.6 0-42.667 17.067-42.667 42.667v170.667h192l72.533-110.933c8.533-8.533 21.333-17.067 34.133-17.067h170.667c12.8 0 25.6 8.533 29.867 17.067l72.533 110.933h196.267v-170.667c0-25.6-17.067-42.667-42.667-42.667z" />
<glyph unicode="&#xe946;" glyph-name="image" d="M810.667 874.667h-597.333c-72.533 0-128-55.467-128-128v-597.333c0-72.533 55.467-128 128-128h597.333c72.533 0 128 55.467 128 128v597.333c0 72.533-55.467 128-128 128zM170.667 746.667c0 25.6 17.067 42.667 42.667 42.667h597.333c25.6 0 42.667-17.067 42.667-42.667v-324.267l-140.8 140.8c-17.067 17.067-42.667 17.067-59.733 0l-452.267-452.267c-17.067 4.267-29.867 17.067-29.867 38.4v597.333zM810.667 106.667h-494.933l366.933 366.933 170.667-170.667v-153.6c0-25.6-17.067-42.667-42.667-42.667zM362.667 490.667c59.733 0 106.667 46.933 106.667 106.667s-46.933 106.667-106.667 106.667-106.667-46.933-106.667-106.667 46.933-106.667 106.667-106.667zM362.667 618.667c12.8 0 21.333-8.533 21.333-21.333s-8.533-21.333-21.333-21.333-21.333 8.533-21.333 21.333 8.533 21.333 21.333 21.333z" />
<glyph unicode="&#xe947;" glyph-name="home" d="M921.6 610.133l-384 298.667c-12.8 12.8-34.133 12.8-51.2 0l-384-298.667c-12.8-8.533-17.067-21.333-17.067-34.133v-469.333c0-72.533 55.467-128 128-128h597.333c72.533 0 128 55.467 128 128v469.333c0 12.8-4.267 25.6-17.067 34.133zM597.333 64h-170.667v341.333h170.667v-341.333zM853.333 106.667c0-25.6-17.067-42.667-42.667-42.667h-128v384c0 25.6-17.067 42.667-42.667 42.667h-256c-25.6 0-42.667-17.067-42.667-42.667v-384h-128c-25.6 0-42.667 17.067-42.667 42.667v448l341.333 264.533 341.333-264.533v-448z" />
<glyph unicode="&#xe948;" glyph-name="headphones" d="M512 874.667c-234.667 0-426.667-192-426.667-426.667v-298.667c0-72.533 55.467-128 128-128h42.667c72.533 0 128 55.467 128 128v128c0 72.533-55.467 128-128 128h-85.333v42.667c0 187.733 153.6 341.333 341.333 341.333s341.333-153.6 341.333-341.333v-42.667h-85.333c-72.533 0-128-55.467-128-128v-128c0-72.533 55.467-128 128-128h42.667c72.533 0 128 55.467 128 128v298.667c0 234.667-192 426.667-426.667 426.667zM256 320c25.6 0 42.667-17.067 42.667-42.667v-128c0-25.6-17.067-42.667-42.667-42.667h-42.667c-25.6 0-42.667 17.067-42.667 42.667v170.667h85.333zM853.333 149.333c0-25.6-17.067-42.667-42.667-42.667h-42.667c-25.6 0-42.667 17.067-42.667 42.667v128c0 25.6 17.067 42.667 42.667 42.667h85.333v-170.667z" />
<glyph unicode="&#xe949;" glyph-name="hash" d="M853.333 362.667h-179.2l17.067 170.667h162.133c25.6 0 42.667 17.067 42.667 42.667s-17.067 42.667-42.667 42.667h-149.333l21.333 209.067c0 21.333-17.067 42.667-38.4 46.933-21.333 0-42.667-17.067-46.933-38.4l-25.6-217.6h-170.667l25.6 209.067c0 21.333-17.067 42.667-38.4 46.933s-42.667-12.8-46.933-38.4l-25.6-217.6h-187.733c-25.6 0-42.667-17.067-42.667-42.667s17.067-42.667 42.667-42.667h179.2l-17.067-170.667h-162.133c-25.6 0-42.667-17.067-42.667-42.667s17.067-42.667 42.667-42.667h149.333l-21.333-209.067c0-21.333 17.067-42.667 38.4-46.933h4.267c21.333 0 38.4 17.067 42.667 38.4l25.6 217.6h170.667l-25.6-209.067c0-21.333 17.067-42.667 38.4-46.933h4.267c21.333 0 38.4 17.067 42.667 38.4l25.6 217.6h187.733c25.6 0 42.667 17.067 42.667 42.667s-17.067 42.667-42.667 42.667zM418.133 362.667l17.067 170.667h170.667l-17.067-170.667h-170.667z" />
<glyph unicode="&#xe94a;" glyph-name="globe" d="M512 917.333c-260.267 0-469.333-209.067-469.333-469.333s209.067-469.333 469.333-469.333 469.333 209.067 469.333 469.333-209.067 469.333-469.333 469.333zM891.733 490.667h-170.667c-8.533 119.467-46.933 230.4-115.2 328.533 153.6-38.4 268.8-166.4 285.867-328.533zM388.267 405.333h251.733c-12.8-115.2-55.467-226.133-123.733-315.733-76.8 89.6-119.467 200.533-128 315.733zM388.267 490.667c12.8 115.2 51.2 226.133 123.733 315.733 72.533-93.867 115.2-200.533 123.733-315.733h-247.467zM413.867 819.2c-64-98.133-102.4-209.067-110.933-328.533h-170.667c17.067 162.133 132.267 290.133 281.6 328.533zM132.267 405.333h170.667c8.533-119.467 46.933-230.4 115.2-328.533-153.6 38.4-268.8 166.4-285.867 328.533zM610.133 76.8c64 98.133 102.4 209.067 115.2 328.533h170.667c-21.333-162.133-136.533-290.133-285.867-328.533z" />
<glyph unicode="&#xe94b;" glyph-name="github" d="M960 597.333c0 64-21.333 123.733-59.733 170.667 12.8 55.467 8.533 110.933-12.8 166.4-4.267 12.8-12.8 21.333-25.6 25.6-17.067 4.267-76.8 12.8-187.733-59.733-89.6 21.333-187.733 21.333-281.6 0-115.2 72.533-170.667 64-187.733 59.733-12.8-4.267-21.333-12.8-25.6-25.6-25.6-55.467-29.867-110.933-12.8-170.667-38.4-46.933-59.733-106.667-59.733-170.667 0-226.133 128-302.933 247.467-328.533-8.533-21.333-12.8-51.2-12.8-76.8v-4.267c-89.6-17.067-119.467 17.067-153.6 64-25.6 29.867-51.2 59.733-93.867 72.533-21.333 8.533-46.933-8.533-51.2-29.867-8.533-21.333 8.533-46.933 29.867-51.2 17.067-4.267 29.867-21.333 46.933-42.667 38.4-46.933 93.867-119.467 221.867-98.133v-72.533c0-25.6 17.067-42.667 42.667-42.667s42.667 17.067 42.667 42.667v166.4c0 29.867 8.533 55.467 29.867 76.8 8.533 8.533 12.8 25.6 8.533 42.667s-17.067 29.867-34.133 29.867c-123.733 12.8-238.933 55.467-238.933 256 0 46.933 17.067 93.867 51.2 132.267 12.8 8.533 12.8 25.6 8.533 42.667-12.8 34.133-12.8 68.267-4.267 102.4 21.333-4.267 59.733-17.067 110.933-55.467 12.8-8.533 25.6-8.533 38.4-4.267 89.6 25.6 187.733 25.6 277.333 0 12.8-4.267 25.6-4.267 34.133 4.267 55.467 38.4 89.6 51.2 110.933 55.467 8.533-34.133 8.533-68.267-4.267-102.4-4.267-12.8-4.267-29.867 8.533-42.667 34.133-38.4 51.2-85.333 51.2-132.267 0-200.533-115.2-243.2-238.933-256-12.8-4.267-29.867-12.8-34.133-29.867-8.533-12.8-4.267-29.867 8.533-42.667 21.333-21.333 34.133-46.933 29.867-81.067v-166.4c0-25.6 17.067-42.667 42.667-42.667s42.667 17.067 42.667 42.667v162.133c0 25.6-4.267 55.467-12.8 81.067 102.4 25.6 247.467 89.6 247.467 332.8z" />
<glyph unicode="&#xe94c;" glyph-name="flag" d="M870.4 870.4c-17.067 8.533-34.133 4.267-46.933-8.533 0 0-38.4-29.867-140.8-29.867-55.467 0-102.4 21.333-153.6 38.4-55.467 25.6-115.2 46.933-187.733 46.933-136.533 0-192-46.933-200.533-55.467s-12.8-17.067-12.8-29.867v-810.667c0-25.6 17.067-42.667 42.667-42.667s42.667 17.067 42.667 42.667v277.333c17.067 8.533 59.733 21.333 128 21.333 55.467 0 102.4-21.333 153.6-38.4 55.467-25.6 115.2-46.933 187.733-46.933 136.533 0 192 46.933 200.533 55.467s12.8 17.067 12.8 29.867v512c0 17.067-8.533 29.867-25.6 38.4zM810.667 341.333c-17.067-8.533-59.733-21.333-128-21.333-55.467 0-102.4 17.067-153.6 38.4-55.467 25.6-115.2 46.933-187.733 46.933-55.467 0-98.133-8.533-128-17.067v422.4c17.067 8.533 59.733 21.333 128 21.333 55.467 0 102.4-21.333 153.6-38.4 55.467-25.6 115.2-46.933 187.733-46.933 55.467 0 98.133 8.533 128 17.067v-422.4z" />
<glyph unicode="&#xe94d;" glyph-name="file-plus" d="M878.933 652.8l-247.467 247.467c-8.533 8.533-17.067 17.067-34.133 17.067h-341.333c-72.533 0-128-55.467-128-128v-682.667c0-72.533 55.467-128 128-128h512c72.533 0 128 55.467 128 128v512c0 17.067-8.533 25.6-17.067 34.133zM640 772.267l110.933-110.933h-110.933v110.933zM768 64h-512c-25.6 0-42.667 17.067-42.667 42.667v682.667c0 25.6 17.067 42.667 42.667 42.667h298.667v-213.333c0-25.6 17.067-42.667 42.667-42.667h213.333v-469.333c0-25.6-17.067-42.667-42.667-42.667zM640 362.667h-85.333v85.333c0 25.6-17.067 42.667-42.667 42.667s-42.667-17.067-42.667-42.667v-85.333h-85.333c-25.6 0-42.667-17.067-42.667-42.667s17.067-42.667 42.667-42.667h85.333v-85.333c0-25.6 17.067-42.667 42.667-42.667s42.667 17.067 42.667 42.667v85.333h85.333c25.6 0 42.667 17.067 42.667 42.667s-17.067 42.667-42.667 42.667z" />
<glyph unicode="&#xe94e;" glyph-name="file-text" d="M878.933 652.8l-247.467 247.467c-8.533 8.533-17.067 17.067-34.133 17.067h-341.333c-72.533 0-128-55.467-128-128v-682.667c0-72.533 55.467-128 128-128h512c72.533 0 128 55.467 128 128v512c0 17.067-8.533 25.6-17.067 34.133zM640 772.267l110.933-110.933h-110.933v110.933zM768 64h-512c-25.6 0-42.667 17.067-42.667 42.667v682.667c0 25.6 17.067 42.667 42.667 42.667h298.667v-213.333c0-25.6 17.067-42.667 42.667-42.667h213.333v-469.333c0-25.6-17.067-42.667-42.667-42.667zM682.667 448h-341.333c-25.6 0-42.667-17.067-42.667-42.667s17.067-42.667 42.667-42.667h341.333c25.6 0 42.667 17.067 42.667 42.667s-17.067 42.667-42.667 42.667zM682.667 277.333h-341.333c-25.6 0-42.667-17.067-42.667-42.667s17.067-42.667 42.667-42.667h341.333c25.6 0 42.667 17.067 42.667 42.667s-17.067 42.667-42.667 42.667zM341.333 533.333h85.333c25.6 0 42.667 17.067 42.667 42.667s-17.067 42.667-42.667 42.667h-85.333c-25.6 0-42.667-17.067-42.667-42.667s17.067-42.667 42.667-42.667z" />
<glyph unicode="&#xe94f;" glyph-name="file" d="M878.933 610.133l-290.133 290.133c-8.533 8.533-17.067 17.067-34.133 17.067h-298.667c-72.533 0-128-55.467-128-128v-682.667c0-72.533 55.467-128 128-128h512c72.533 0 128 55.467 128 128v469.333c0 17.067-8.533 25.6-17.067 34.133zM597.333 772.267l153.6-153.6h-153.6v153.6zM768 64h-512c-25.6 0-42.667 17.067-42.667 42.667v682.667c0 25.6 17.067 42.667 42.667 42.667h256v-256c0-25.6 17.067-42.667 42.667-42.667h256v-426.667c0-25.6-17.067-42.667-42.667-42.667z" />
<glyph unicode="&#xe950;" glyph-name="film" d="M844.8 917.333h-665.6c-76.8 0-136.533-59.733-136.533-136.533v-665.6c0-76.8 59.733-136.533 136.533-136.533h665.6c76.8 0 136.533 59.733 136.533 136.533v665.6c0 76.8-59.733 136.533-136.533 136.533zM768 618.667h128v-128h-128v128zM682.667 490.667h-341.333v341.333h341.333v-341.333zM256 490.667h-128v128h128v-128zM128 405.333h128v-128h-128v128zM341.333 405.333h341.333v-341.333h-341.333v341.333zM768 405.333h128v-128h-128v128zM896 780.8v-76.8h-128v128h76.8c29.867 0 51.2-21.333 51.2-51.2zM179.2 832h76.8v-128h-128v76.8c0 29.867 21.333 51.2 51.2 51.2zM128 115.2v76.8h128v-128h-76.8c-29.867 0-51.2 21.333-51.2 51.2zM844.8 64h-76.8v128h128v-76.8c0-29.867-21.333-51.2-51.2-51.2z" />
<glyph unicode="&#xe951;" glyph-name="filter" d="M977.067 849.067c-8.533 17.067-21.333 25.6-38.4 25.6h-853.333c-17.067 0-29.867-8.533-38.4-25.6-8.533-12.8-4.267-29.867 4.267-42.667l332.8-392.533v-264.533c0-17.067 8.533-29.867 25.6-38.4l170.667-85.333c4.267-4.267 8.533-4.267 17.067-4.267s17.067 0 21.333 4.267c12.8 8.533 21.333 25.6 21.333 38.4v349.867l332.8 388.267c8.533 12.8 12.8 29.867 4.267 46.933zM563.2 452.267c-4.267-4.267-8.533-17.067-8.533-25.6v-294.4l-85.333 42.667v256c0 8.533 0 17.067-8.533 25.6l-281.6 332.8h665.6l-281.6-337.067z" />
<glyph unicode="&#xe952;" glyph-name="file-minus" d="M878.933 652.8l-247.467 247.467c-8.533 8.533-17.067 17.067-34.133 17.067h-341.333c-72.533 0-128-55.467-128-128v-682.667c0-72.533 55.467-128 128-128h512c72.533 0 128 55.467 128 128v512c0 17.067-8.533 25.6-17.067 34.133zM640 772.267l110.933-110.933h-110.933v110.933zM768 64h-512c-25.6 0-42.667 17.067-42.667 42.667v682.667c0 25.6 17.067 42.667 42.667 42.667h298.667v-213.333c0-25.6 17.067-42.667 42.667-42.667h213.333v-469.333c0-25.6-17.067-42.667-42.667-42.667zM640 362.667h-256c-25.6 0-42.667-17.067-42.667-42.667s17.067-42.667 42.667-42.667h256c25.6 0 42.667 17.067 42.667 42.667s-17.067 42.667-42.667 42.667z" />
<glyph unicode="&#xe953;" glyph-name="feather" d="M891.733 832c-115.2 115.2-307.2 115.2-422.4 0l-285.867-290.133c-8.533-8.533-12.8-17.067-12.8-29.867v-345.6l-115.2-115.2c-17.067-17.067-17.067-42.667 0-59.733 8.533-8.533 17.067-12.8 29.867-12.8s21.333 4.267 29.867 12.8l115.2 115.2h345.6c12.8 0 21.333 4.267 29.867 12.8l285.867 290.133c115.2 115.2 115.2 307.2 0 422.4zM558.933 192h-243.2l85.333 85.333h243.2l-85.333-85.333zM832 469.333l-106.667-106.667c0 0 0 0 0 0h-238.933l226.133 226.133c17.067 17.067 17.067 42.667 0 59.733s-42.667 17.067-59.733 0l-294.4-294.4c-4.267-4.267-8.533-4.267-8.533-8.533l-93.867-93.867v243.2l273.067 277.333c85.333 85.333 217.6 85.333 302.933 0s85.333-217.6 0-302.933z" />
<glyph unicode="&#xe954;" glyph-name="eye-off" d="M430.933 733.867c25.6 4.267 55.467 8.533 81.067 8.533 230.4 0 384-230.4 422.4-298.667-21.333-38.4-46.933-72.533-76.8-106.667-17.067-17.067-12.8-42.667 4.267-59.733 4.267-4.267 17.067-8.533 25.6-8.533 12.8 0 25.6 4.267 34.133 12.8 38.4 46.933 72.533 93.867 98.133 145.067 4.267 12.8 4.267 25.6 0 38.4-8.533 17.067-187.733 366.933-507.733 366.933-34.133 0-68.267-4.267-98.133-12.8-25.6-4.267-38.4-25.6-34.133-51.2 8.533-21.333 29.867-34.133 51.2-34.133zM1011.2 8.533l-371.2 371.2c0 4.267-4.267 8.533-8.533 12.8s-8.533 8.533-12.8 8.533l-157.867 157.867c0 4.267-4.267 8.533-8.533 12.8s-8.533 8.533-12.8 8.533l-366.933 366.933c-17.067 17.067-42.667 17.067-59.733 0s-17.067-42.667 0-59.733l183.467-183.467c-81.067-68.267-145.067-145.067-192-234.667-4.267-12.8-4.267-25.6 0-38.4 8.533-17.067 187.733-366.933 507.733-366.933 89.6 0 174.933 25.6 247.467 76.8l192-192c8.533-8.533 17.067-12.8 29.867-12.8s21.333 4.267 29.867 12.8c17.067 17.067 17.067 42.667 0 59.733zM426.667 473.6l102.4-102.4c-4.267 0-12.8-4.267-17.067-4.267-21.333-4.267-42.667 4.267-59.733 21.333s-25.6 38.4-25.6 59.733c0 8.533 0 17.067 0 25.6zM512 149.333c-230.4 0-384 230.4-422.4 298.667 46.933 76.8 102.4 140.8 166.4 196.267l106.667-106.667c-17.067-29.867-25.6-64-25.6-98.133 4.267-46.933 21.333-89.6 55.467-119.467 29.867-29.867 72.533-46.933 115.2-46.933 4.267 0 4.267 0 4.267 4.267 29.867 4.267 59.733 12.8 85.333 25.6l102.4-102.4c-59.733-29.867-123.733-51.2-187.733-51.2z" />
<glyph unicode="&#xe955;" glyph-name="external-link" d="M768 448c-25.6 0-42.667-17.067-42.667-42.667v-256c0-25.6-17.067-42.667-42.667-42.667h-469.333c-25.6 0-42.667 17.067-42.667 42.667v469.333c0 25.6 17.067 42.667 42.667 42.667h256c25.6 0 42.667 17.067 42.667 42.667s-17.067 42.667-42.667 42.667h-256c-72.533 0-128-55.467-128-128v-469.333c0-72.533 55.467-128 128-128h469.333c72.533 0 128 55.467 128 128v256c0 25.6-17.067 42.667-42.667 42.667zM896 874.667h-256c-25.6 0-42.667-17.067-42.667-42.667s17.067-42.667 42.667-42.667h153.6l-396.8-396.8c-17.067-17.067-17.067-42.667 0-59.733 8.533-8.533 17.067-12.8 29.867-12.8s21.333 4.267 29.867 12.8l396.8 396.8v-153.6c0-25.6 17.067-42.667 42.667-42.667s42.667 17.067 42.667 42.667v256c0 25.6-17.067 42.667-42.667 42.667z" />
<glyph unicode="&#xe956;" glyph-name="download-cloud" d="M652.8 264.533l-98.133-98.133v281.6c0 25.6-17.067 42.667-42.667 42.667s-42.667-17.067-42.667-42.667v-281.6l-98.133 98.133c-17.067 17.067-42.667 17.067-59.733 0s-17.067-42.667 0-59.733l166.4-166.4c8.533-12.8 17.067-17.067 34.133-17.067s25.6 8.533 34.133 17.067l166.4 166.4c17.067 17.067 17.067 42.667 0 59.733s-42.667 17.067-59.733 0zM977.067 512c-46.933 64-123.733 106.667-209.067 106.667h-21.333c-64 187.733-264.533 294.4-460.8 243.2-98.133-25.6-183.467-85.333-234.667-174.933-55.467-89.6-68.267-192-42.667-290.133 17.067-55.467 46.933-110.933 85.333-157.867 17.067-17.067 42.667-21.333 59.733-4.267s21.333 42.667 4.267 59.733c-29.867 34.133-51.2 76.8-64 123.733-21.333 76.8-8.533 157.867 34.133 226.133 38.4 68.267 102.4 115.2 174.933 136.533 157.867 42.667 320-55.467 362.667-213.333 4.267-21.333 21.333-34.133 42.667-34.133h55.467c55.467 0 110.933-25.6 140.8-72.533 25.6-38.4 34.133-81.067 29.867-128s-29.867-85.333-68.267-110.933c-17.067-12.8-21.333-38.4-8.533-59.733 8.533-12.8 21.333-17.067 34.133-17.067 8.533 0 17.067 4.267 21.333 8.533 59.733 38.4 93.867 98.133 106.667 166.4s-4.267 136.533-42.667 192z" />
<glyph unicode="&#xe957;" glyph-name="download" d="M896 277.333c-25.6 0-42.667-17.067-42.667-42.667v-128c0-25.6-17.067-42.667-42.667-42.667h-597.333c-25.6 0-42.667 17.067-42.667 42.667v128c0 25.6-17.067 42.667-42.667 42.667s-42.667-17.067-42.667-42.667v-128c0-72.533 55.467-128 128-128h597.333c72.533 0 128 55.467 128 128v128c0 25.6-17.067 42.667-42.667 42.667zM477.867 251.733c8.533-12.8 17.067-17.067 34.133-17.067s25.6 8.533 34.133 17.067l166.4 166.4c17.067 17.067 17.067 42.667 0 59.733s-42.667 17.067-59.733 0l-98.133-98.133v494.933c0 25.6-17.067 42.667-42.667 42.667s-42.667-17.067-42.667-42.667v-494.933l-98.133 98.133c-17.067 17.067-42.667 17.067-59.733 0s-17.067-42.667 0-59.733l166.4-166.4z" />
<glyph unicode="&#xe958;" glyph-name="crosshair" d="M512 917.333c-260.267 0-469.333-209.067-469.333-469.333s209.067-469.333 469.333-469.333 469.333 209.067 469.333 469.333-209.067 469.333-469.333 469.333zM554.667 68.267v123.733c0 25.6-17.067 42.667-42.667 42.667s-42.667-17.067-42.667-42.667v-123.733c-179.2 21.333-320 157.867-337.067 337.067h123.733c25.6 0 42.667 17.067 42.667 42.667s-17.067 42.667-42.667 42.667h-123.733c17.067 179.2 157.867 320 337.067 337.067v-123.733c0-25.6 17.067-42.667 42.667-42.667s42.667 17.067 42.667 42.667v123.733c179.2-21.333 320-157.867 337.067-337.067h-123.733c-25.6 0-42.667-17.067-42.667-42.667s17.067-42.667 42.667-42.667h123.733c-17.067-179.2-157.867-320-337.067-337.067z" />
<glyph unicode="&#xe959;" glyph-name="crop" d="M981.333 234.667h-170.667v384c0 72.533-55.467 128-128 128l-379.733-4.267v174.933c0 21.333-17.067 42.667-42.667 42.667-21.333 0-42.667-21.333-42.667-42.667v-174.933h-174.933c-25.6 0-42.667-17.067-42.667-42.667s21.333-42.667 42.667-42.667h174.933l-4.267-379.733c0-72.533 55.467-128 128-128h384v-170.667c0-25.6 17.067-42.667 42.667-42.667s42.667 17.067 42.667 42.667v170.667h170.667c25.6 0 42.667 17.067 42.667 42.667s-17.067 42.667-42.667 42.667zM341.333 234.667c-25.6 0-42.667 21.333-42.667 42.667l4.267 379.733 379.733 4.267c25.6 0 42.667-17.067 42.667-42.667v-384h-384z" />
<glyph unicode="&#xe95a;" glyph-name="credit-card" d="M896 832h-768c-72.533 0-128-55.467-128-128v-512c0-72.533 55.467-128 128-128h768c72.533 0 128 55.467 128 128v512c0 72.533-55.467 128-128 128zM128 746.667h768c25.6 0 42.667-17.067 42.667-42.667v-128h-853.333v128c0 25.6 17.067 42.667 42.667 42.667zM896 149.333h-768c-25.6 0-42.667 17.067-42.667 42.667v298.667h853.333v-298.667c0-25.6-17.067-42.667-42.667-42.667z" />
<glyph unicode="&#xe95b;" glyph-name="cpu" d="M640 618.667h-256c-25.6 0-42.667-17.067-42.667-42.667v-256c0-25.6 17.067-42.667 42.667-42.667h256c25.6 0 42.667 17.067 42.667 42.667v256c0 25.6-17.067 42.667-42.667 42.667zM597.333 362.667h-170.667v170.667h170.667v-170.667zM981.333 405.333h-85.333v128h85.333c25.6 0 42.667 17.067 42.667 42.667s-17.067 42.667-42.667 42.667h-85.333v85.333c0 72.533-55.467 128-128 128h-85.333v85.333c0 25.6-17.067 42.667-42.667 42.667s-42.667-17.067-42.667-42.667v-85.333h-170.667v85.333c0 25.6-17.067 42.667-42.667 42.667s-42.667-17.067-42.667-42.667v-85.333h-85.333c-72.533 0-128-55.467-128-128v-85.333h-85.333c-25.6 0-42.667-17.067-42.667-42.667s17.067-42.667 42.667-42.667h85.333v-128h-85.333c-25.6 0-42.667-17.067-42.667-42.667s17.067-42.667 42.667-42.667h85.333v-128c0-72.533 55.467-128 128-128h85.333v-85.333c0-25.6 17.067-42.667 42.667-42.667s42.667 17.067 42.667 42.667v85.333h170.667v-85.333c0-25.6 17.067-42.667 42.667-42.667s42.667 17.067 42.667 42.667v85.333h85.333c72.533 0 128 55.467 128 128v128h85.333c25.6 0 42.667 17.067 42.667 42.667s-17.067 42.667-42.667 42.667zM810.667 192c0-25.6-17.067-42.667-42.667-42.667h-512c-25.6 0-42.667 17.067-42.667 42.667v512c0 25.6 17.067 42.667 42.667 42.667h512c25.6 0 42.667-17.067 42.667-42.667v-512z" />
<glyph unicode="&#xe95c;" glyph-name="corner-down-left" d="M853.333 832c-25.6 0-42.667-17.067-42.667-42.667v-298.667c0-72.533-55.467-128-128-128h-409.6l140.8 140.8c17.067 17.067 17.067 42.667 0 59.733s-42.667 17.067-59.733 0l-209.067-209.067c-8.533-8.533-17.067-17.067-17.067-34.133s8.533-25.6 17.067-34.133l209.067-209.067c8.533-8.533 17.067-12.8 29.867-12.8s21.333 4.267 29.867 12.8c17.067 17.067 17.067 42.667 0 59.733l-140.8 140.8h409.6c119.467 0 213.333 93.867 213.333 213.333v298.667c0 25.6-17.067 42.667-42.667 42.667z" />
<glyph unicode="&#xe95d;" glyph-name="corner-down-right" d="M896 320c0 17.067-8.533 25.6-17.067 34.133l-209.067 209.067c-17.067 17.067-42.667 17.067-59.733 0s-17.067-42.667 0-59.733l140.8-140.8h-409.6c-72.533 0-128 55.467-128 128v298.667c0 25.6-17.067 42.667-42.667 42.667s-42.667-17.067-42.667-42.667v-298.667c0-119.467 93.867-213.333 213.333-213.333h409.6l-140.8-140.8c-17.067-17.067-17.067-42.667 0-59.733 8.533-8.533 17.067-12.8 29.867-12.8s21.333 4.267 29.867 12.8l209.067 209.067c8.533 8.533 17.067 17.067 17.067 34.133z" />
<glyph unicode="&#xe95e;" glyph-name="corner-left-down" d="M853.333 832h-298.667c-119.467 0-213.333-93.867-213.333-213.333v-409.6l-140.8 140.8c-17.067 17.067-42.667 17.067-59.733 0s-17.067-42.667 0-59.733l209.067-209.067c8.533-8.533 17.067-17.067 34.133-17.067s25.6 8.533 34.133 17.067l209.067 209.067c17.067 17.067 17.067 42.667 0 59.733s-42.667 17.067-59.733 0l-140.8-140.8v409.6c0 72.533 55.467 128 128 128h298.667c25.6 0 42.667 17.067 42.667 42.667s-17.067 42.667-42.667 42.667z" />
<glyph unicode="&#xe95f;" glyph-name="corner-left-up" d="M853.333 149.333h-298.667c-72.533 0-128 55.467-128 128v409.6l140.8-140.8c8.533-8.533 17.067-12.8 29.867-12.8s21.333 4.267 29.867 12.8c17.067 17.067 17.067 42.667 0 59.733l-209.067 209.067c-8.533 8.533-17.067 17.067-34.133 17.067s-25.6-8.533-34.133-17.067l-209.067-209.067c-17.067-17.067-17.067-42.667 0-59.733s42.667-17.067 59.733 0l140.8 140.8v-409.6c0-119.467 93.867-213.333 213.333-213.333h298.667c25.6 0 42.667 17.067 42.667 42.667s-17.067 42.667-42.667 42.667z" />
<glyph unicode="&#xe960;" glyph-name="corner-right-down" d="M883.2 349.867c-17.067 17.067-42.667 17.067-59.733 0l-140.8-140.8v409.6c0 119.467-93.867 213.333-213.333 213.333h-298.667c-25.6 0-42.667-17.067-42.667-42.667s17.067-42.667 42.667-42.667h298.667c72.533 0 128-55.467 128-128v-409.6l-140.8 140.8c-17.067 17.067-42.667 17.067-59.733 0s-17.067-42.667 0-59.733l209.067-209.067c8.533-12.8 17.067-17.067 34.133-17.067s25.6 8.533 34.133 17.067l209.067 209.067c17.067 17.067 17.067 42.667 0 59.733z" />
<glyph unicode="&#xe961;" glyph-name="corner-right-up" d="M883.2 605.867l-209.067 209.067c-8.533 8.533-17.067 17.067-34.133 17.067s-25.6-8.533-34.133-17.067l-209.067-209.067c-17.067-17.067-17.067-42.667 0-59.733s42.667-17.067 59.733 0l140.8 140.8v-409.6c0-72.533-55.467-128-128-128h-298.667c-25.6 0-42.667-17.067-42.667-42.667s17.067-42.667 42.667-42.667h298.667c119.467 0 213.333 93.867 213.333 213.333v409.6l140.8-140.8c8.533-8.533 17.067-12.8 29.867-12.8s21.333 4.267 29.867 12.8c17.067 17.067 17.067 42.667 0 59.733z" />
<glyph unicode="&#xe962;" glyph-name="corner-up-left" d="M682.667 618.667h-409.6l140.8 140.8c17.067 17.067 17.067 42.667 0 59.733s-42.667 17.067-59.733 0l-209.067-209.067c-8.533-8.533-17.067-17.067-17.067-34.133s8.533-25.6 17.067-34.133l209.067-209.067c8.533-8.533 17.067-12.8 29.867-12.8s21.333 4.267 29.867 12.8c17.067 17.067 17.067 42.667 0 59.733l-140.8 140.8h409.6c72.533 0 128-55.467 128-128v-298.667c0-25.6 17.067-42.667 42.667-42.667s42.667 17.067 42.667 42.667v298.667c0 119.467-93.867 213.333-213.333 213.333z" />
<glyph unicode="&#xe963;" glyph-name="corner-up-right" d="M896 576c0 17.067-8.533 25.6-17.067 34.133l-209.067 209.067c-17.067 17.067-42.667 17.067-59.733 0s-17.067-42.667 0-59.733l140.8-140.8h-409.6c-119.467 0-213.333-93.867-213.333-213.333v-298.667c0-25.6 17.067-42.667 42.667-42.667s42.667 17.067 42.667 42.667v298.667c0 72.533 55.467 128 128 128h409.6l-140.8-140.8c-17.067-17.067-17.067-42.667 0-59.733 8.533-8.533 17.067-12.8 29.867-12.8s21.333 4.267 29.867 12.8l209.067 209.067c8.533 8.533 17.067 17.067 17.067 34.133z" />
<glyph unicode="&#xe964;" glyph-name="command" d="M768 362.667h-85.333v170.667h85.333c93.867 0 170.667 76.8 170.667 170.667s-76.8 170.667-170.667 170.667-170.667-76.8-170.667-170.667v-85.333h-170.667v85.333c0 93.867-76.8 170.667-170.667 170.667s-170.667-76.8-170.667-170.667 76.8-170.667 170.667-170.667h85.333v-170.667h-85.333c-93.867 0-170.667-76.8-170.667-170.667s76.8-170.667 170.667-170.667 170.667 76.8 170.667 170.667v85.333h170.667v-85.333c0-93.867 76.8-170.667 170.667-170.667s170.667 76.8 170.667 170.667-76.8 170.667-170.667 170.667zM682.667 704c0 46.933 38.4 85.333 85.333 85.333s85.333-38.4 85.333-85.333-38.4-85.333-85.333-85.333h-85.333v85.333zM341.333 192c0-46.933-38.4-85.333-85.333-85.333s-85.333 38.4-85.333 85.333 38.4 85.333 85.333 85.333h85.333v-85.333zM341.333 618.667h-85.333c-46.933 0-85.333 38.4-85.333 85.333s38.4 85.333 85.333 85.333 85.333-38.4 85.333-85.333v-85.333zM597.333 362.667h-170.667v170.667h170.667v-170.667zM768 106.667c-46.933 0-85.333 38.4-85.333 85.333v85.333h85.333c46.933 0 85.333-38.4 85.333-85.333s-38.4-85.333-85.333-85.333z" />
<glyph unicode="&#xe965;" glyph-name="codepen" d="M972.8 622.933c0 0 0 0 0 0s0 0 0 0c-4.267 4.267-4.267 8.533-8.533 8.533l-422.4 273.067c-4.267 8.533-17.067 12.8-29.867 12.8-17.067 0-25.6-8.533-34.133-17.067l-396.8-260.267c-12.8 0-21.333-8.533-29.867-17.067 0 0 0-4.267 0-4.267-4.267-4.267-8.533-12.8-8.533-21.333v-298.667c0-8.533 4.267-17.067 8.533-21.333 0 0 0-4.267 0-4.267 4.267-8.533 12.8-8.533 21.333-12.8l405.333-264.533c8.533-8.533 17.067-17.067 34.133-17.067s25.6 8.533 34.133 17.067l401.067 260.267c8.533 0 12.8 4.267 17.067 12.8 8.533 8.533 17.067 21.333 17.067 29.867v298.667c0 8.533-4.267 17.067-8.533 25.6zM128 516.267l98.133-68.267-98.133-68.267v136.533zM512 349.867l-140.8 98.133 140.8 98.133 140.8-98.133-140.8-98.133zM554.667 618.667v179.2l307.2-200.533-136.533-98.133-170.667 119.467zM469.333 618.667l-170.667-119.467-136.533 98.133 307.2 200.533v-179.2zM298.667 396.8l170.667-119.467v-179.2l-307.2 204.8 136.533 93.867zM554.667 277.333l170.667 119.467 136.533-98.133-307.2-200.533v179.2zM797.867 448l98.133 68.267v-136.533l-98.133 68.267z" />
<glyph unicode="&#xe966;" glyph-name="cloud-off" d="M409.6 746.667c128-12.8 230.4-102.4 260.267-226.133 4.267-21.333 21.333-34.133 42.667-34.133h55.467c25.6 0 46.933-4.267 68.267-12.8 85.333-34.133 128-136.533 89.6-221.867-8.533-21.333 0-46.933 21.333-55.467 4.267-4.267 12.8-4.267 17.067-4.267 17.067 0 34.133 12.8 38.4 25.6 55.467 132.267-8.533 281.6-136.533 337.067-29.867 12.8-64 21.333-98.133 21.333h-21.333c-51.2 140.8-179.2 243.2-328.533 256-25.6 4.267-46.933-12.8-46.933-38.4-4.267-25.6 12.8-46.933 38.4-46.933zM1011.2 8.533l-136.533 136.533c0 0-4.267 4.267-4.267 4.267l-618.667 618.667c-4.267 4.267-8.533 8.533-12.8 12.8l-166.4 166.4c-17.067 17.067-42.667 17.067-59.733 0s-17.067-42.667 0-59.733l136.533-136.533c-68.267-51.2-119.467-119.467-140.8-200.533-25.6-98.133-17.067-200.533 34.133-290.133 68.267-119.467 196.267-196.267 337.067-196.267 0 0 4.267 0 4.267-4.267h388.267c21.333 0 38.4 4.267 59.733 8.533l119.467-119.467c8.533-8.533 17.067-12.8 29.867-12.8s21.333 4.267 29.867 12.8c17.067 17.067 17.067 42.667 0 59.733zM384 149.333c-110.933-4.267-213.333 55.467-264.533 153.6-38.4 68.267-46.933 149.333-25.6 226.133 17.067 68.267 59.733 123.733 115.2 162.133l541.867-541.867h-366.933z" />
<glyph unicode="&#xe967;" glyph-name="clipboard" d="M768 832h-42.667c0 46.933-38.4 85.333-85.333 85.333h-256c-46.933 0-85.333-38.4-85.333-85.333h-42.667c-72.533 0-128-55.467-128-128v-597.333c0-72.533 55.467-128 128-128h512c72.533 0 128 55.467 128 128v597.333c0 72.533-55.467 128-128 128zM384 832h256v-85.333h-256v85.333zM810.667 106.667c0-25.6-17.067-42.667-42.667-42.667h-512c-25.6 0-42.667 17.067-42.667 42.667v597.333c0 25.6 17.067 42.667 42.667 42.667h42.667c0-46.933 38.4-85.333 85.333-85.333h256c46.933 0 85.333 38.4 85.333 85.333h42.667c25.6 0 42.667-17.067 42.667-42.667v-597.333z" />
<glyph unicode="&#xe968;" glyph-name="chrome" d="M947.2 627.2c0 8.533-4.267 12.8-8.533 17.067-76.8 162.133-238.933 273.067-426.667 273.067-153.6 0-294.4-76.8-379.733-192 0 0 0 0 0 0-55.467-76.8-89.6-174.933-89.6-277.333 0-260.267 209.067-469.333 469.333-469.333s469.333 209.067 469.333 469.333c0 64-12.8 123.733-34.133 179.2zM512 832c132.267 0 251.733-68.267 320-170.667h-320c-89.6 0-166.4-51.2-196.267-128l-98.133 162.133c72.533 85.333 174.933 136.533 294.4 136.533zM640 448c0-25.6-4.267-46.933-17.067-64 0 0 0 0 0 0l-4.267-12.8c-25.6-29.867-64-51.2-106.667-51.2-46.933 0-89.6 25.6-110.933 64 0 0 0 0 0 0v4.267c-12.8 17.067-17.067 38.4-17.067 59.733 0 72.533 55.467 128 128 128s128-55.467 128-128zM128 448c0 59.733 12.8 119.467 38.4 170.667l157.867-277.333c4.267-4.267 4.267-4.267 8.533-8.533 38.4-59.733 102.4-98.133 179.2-98.133 8.533 0 17.067 0 25.6 4.267l-98.133-166.4c-179.2 29.867-311.467 187.733-311.467 375.467zM537.6 64l162.133 277.333c0 4.267 0 8.533 4.267 12.8 12.8 29.867 21.333 59.733 21.333 93.867 0 46.933-17.067 93.867-42.667 128h192c12.8-38.4 21.333-81.067 21.333-128 0-204.8-157.867-366.933-358.4-384z" />
<glyph unicode="&#xe969;" glyph-name="camera-off" d="M930.133 89.6c-4.267 4.267-4.267 8.533-8.533 8.533l-234.667 234.667c-4.267 4.267-8.533 8.533-12.8 12.8l-221.867 221.867c-4.267 4.267-8.533 8.533-12.8 12.8l-149.333 149.333c0 4.267-4.267 8.533-8.533 8.533l-209.067 209.067c-17.067 17.067-42.667 17.067-59.733 0s-17.067-42.667 0-59.733l140.8-140.8h-25.6c-72.533 0-128-55.467-128-128v-469.333c0-72.533 55.467-128 128-128h750.933l72.533-72.533c8.533-8.533 17.067-12.8 29.867-12.8s21.333 4.267 29.867 12.8c17.067 17.067 17.067 42.667 0 59.733l-81.067 81.067zM405.333 477.867c4.267 4.267 4.267 4.267 8.533 8.533l179.2-179.2c-17.067-17.067-38.4-25.6-59.733-29.867-29.867-4.267-64 0-93.867 21.333-29.867 17.067-51.2 46.933-55.467 81.067s4.267 68.267 21.333 98.133zM128 106.667c-25.6 0-42.667 17.067-42.667 42.667v469.333c0 25.6 17.067 42.667 42.667 42.667h110.933l115.2-115.2c-4.267-8.533-12.8-12.8-17.067-21.333-34.133-46.933-42.667-102.4-34.133-157.867 12.8-55.467 42.667-102.4 89.6-136.533 34.133-25.6 76.8-38.4 119.467-38.4 12.8 0 25.6 0 38.4 4.267 38.4 8.533 72.533 25.6 102.4 51.2l140.8-140.8h-665.6zM896 746.667h-149.333l-72.533 110.933c-8.533 8.533-21.333 17.067-34.133 17.067h-256c-25.6 0-42.667-17.067-42.667-42.667s17.067-42.667 42.667-42.667h234.667l72.533-110.933c8.533-8.533 21.333-17.067 34.133-17.067h170.667c25.6 0 42.667-17.067 42.667-42.667v-396.8c0-25.6 17.067-42.667 42.667-42.667s42.667 17.067 42.667 42.667v396.8c0 72.533-55.467 128-128 128z" />
<glyph unicode="&#xe96a;" glyph-name="calendar" d="M810.667 832h-85.333v42.667c0 25.6-17.067 42.667-42.667 42.667s-42.667-17.067-42.667-42.667v-42.667h-256v42.667c0 25.6-17.067 42.667-42.667 42.667s-42.667-17.067-42.667-42.667v-42.667h-85.333c-72.533 0-128-55.467-128-128v-597.333c0-72.533 55.467-128 128-128h597.333c72.533 0 128 55.467 128 128v597.333c0 72.533-55.467 128-128 128zM213.333 746.667h85.333v-42.667c0-25.6 17.067-42.667 42.667-42.667s42.667 17.067 42.667 42.667v42.667h256v-42.667c0-25.6 17.067-42.667 42.667-42.667s42.667 17.067 42.667 42.667v42.667h85.333c25.6 0 42.667-17.067 42.667-42.667v-128h-682.667v128c0 25.6 17.067 42.667 42.667 42.667zM810.667 64h-597.333c-25.6 0-42.667 17.067-42.667 42.667v384h682.667v-384c0-25.6-17.067-42.667-42.667-42.667z" />
<glyph unicode="&#xe96b;" glyph-name="briefcase" d="M853.333 704h-128v42.667c0 72.533-55.467 128-128 128h-170.667c-72.533 0-128-55.467-128-128v-42.667h-128c-72.533 0-128-55.467-128-128v-426.667c0-72.533 55.467-128 128-128h682.667c72.533 0 128 55.467 128 128v426.667c0 72.533-55.467 128-128 128zM384 746.667c0 25.6 17.067 42.667 42.667 42.667h170.667c25.6 0 42.667-17.067 42.667-42.667v-42.667h-256v42.667zM640 618.667v-512h-256v512h256zM128 149.333v426.667c0 25.6 17.067 42.667 42.667 42.667h128v-512h-128c-25.6 0-42.667 17.067-42.667 42.667zM896 149.333c0-25.6-17.067-42.667-42.667-42.667h-128v512h128c25.6 0 42.667-17.067 42.667-42.667v-426.667z" />
<glyph unicode="&#xe96c;" glyph-name="box" d="M913.067 768l-341.333 170.667c-38.4 17.067-81.067 17.067-115.2 0l-341.333-170.667c-25.6-12.8-42.667-29.867-55.467-51.2 0 0 0 0 0 0s0 0 0 0c-12.8-21.333-17.067-42.667-17.067-64v-409.6c0-46.933 29.867-93.867 72.533-115.2l341.333-170.667c17.067-8.533 34.133-12.8 55.467-12.8s38.4 4.267 59.733 17.067l341.333 170.667c46.933 21.333 72.533 68.267 72.533 115.2v405.333c0 51.2-29.867 93.867-72.533 115.2zM494.933 861.867c4.267 4.267 8.533 4.267 17.067 4.267s12.8-4.267 17.067-4.267l315.733-157.867-332.8-166.4-332.8 166.4 315.733 157.867zM149.333 209.067c-12.8 8.533-21.333 21.333-21.333 38.4v388.267l341.333-170.667v-413.867l-320 157.867zM870.4 209.067l-315.733-157.867v418.133l341.333 170.667v-392.533c0-17.067-12.8-29.867-25.6-38.4z" />
<glyph unicode="&#xe96d;" glyph-name="book" d="M853.333 917.333h-576c-81.067 0-149.333-68.267-149.333-149.333v-640c0-81.067 68.267-149.333 149.333-149.333h576c25.6 0 42.667 17.067 42.667 42.667v853.333c0 25.6-17.067 42.667-42.667 42.667zM277.333 832h533.333v-554.667h-533.333c-21.333 0-42.667-4.267-64-17.067v507.733c0 34.133 29.867 64 64 64zM277.333 64c-34.133 0-64 29.867-64 64s29.867 64 64 64h533.333v-128h-533.333z" />
<glyph unicode="&#xe96e;" glyph-name="bluetooth" d="M571.733 448l204.8 204.8c17.067 17.067 17.067 42.667 0 59.733l-234.667 234.667c-12.8 12.8-29.867 17.067-46.933 8.533-17.067-4.267-25.6-21.333-25.6-38.4v-366.933l-162.133 162.133c-17.067 17.067-42.667 17.067-59.733 0s-17.067-42.667 0-59.733l204.8-204.8-204.8-204.8c-17.067-17.067-17.067-42.667 0-59.733s42.667-17.067 59.733 0l162.133 162.133v-366.933c0-17.067 8.533-34.133 25.6-38.4 4.267-4.267 12.8-4.267 17.067-4.267 12.8 0 21.333 4.267 29.867 12.8l234.667 234.667c17.067 17.067 17.067 42.667 0 59.733l-204.8 204.8zM554.667 814.933l132.267-132.267-132.267-132.267v264.533zM554.667 81.067v264.533l132.267-132.267-132.267-132.267z" />
<glyph unicode="&#xe96f;" glyph-name="bell-off" d="M384 802.133c123.733 68.267 281.6 25.6 349.867-98.133 21.333-38.4 34.133-85.333 34.133-128v-170.667c0-25.6 17.067-42.667 42.667-42.667s42.667 17.067 42.667 46.933v170.667c0 55.467-12.8 115.2-42.667 166.4-93.867 162.133-302.933 221.867-465.067 128-21.333-12.8-29.867-38.4-17.067-59.733s38.4-25.6 55.467-12.8zM614.4 102.4c-21.333 8.533-46.933 4.267-59.733-17.067s-38.4-29.867-59.733-17.067c-8.533 4.267-12.8 12.8-17.067 17.067-12.8 21.333-38.4 29.867-59.733 17.067s-29.867-38.4-17.067-59.733c12.8-21.333 25.6-34.133 46.933-46.933s42.667-17.067 64-17.067c42.667 0 85.333 21.333 119.467 64 8.533 21.333 4.267 46.933-17.067 59.733zM1011.2 8.533l-251.733 251.733c-4.267 4.267-4.267 8.533-8.533 8.533l-678.4 678.4c-17.067 17.067-42.667 17.067-59.733 0s-17.067-42.667 0-59.733l183.467-183.467c-17.067-42.667-25.6-85.333-25.6-128v-213.333c0-46.933-38.4-85.333-85.333-85.333-25.6 0-42.667-17.067-42.667-42.667s17.067-42.667 42.667-42.667h622.933l243.2-243.2c8.533-8.533 17.067-12.8 29.867-12.8s21.333 4.267 29.867 12.8c17.067 17.067 17.067 42.667 0 59.733zM234.667 277.333c12.8 25.6 21.333 55.467 21.333 85.333v213.333c0 21.333 4.267 42.667 8.533 59.733l358.4-358.4h-388.267z" />
<glyph unicode="&#xe970;" glyph-name="award" d="M721.067 349.867c81.067 59.733 132.267 157.867 132.267 268.8 0 187.733-153.6 341.333-341.333 341.333s-341.333-153.6-341.333-341.333c0-110.933 51.2-209.067 132.267-268.8l-46.933-366.933c-4.267-17.067 4.267-34.133 17.067-42.667 17.067-8.533 34.133-8.533 46.933 0l192 115.2 192-115.2c4.267-4.267 12.8-4.267 21.333-4.267s17.067 4.267 25.6 4.267c12.8 8.533 21.333 25.6 17.067 42.667l-46.933 366.933zM256 618.667c0 140.8 115.2 256 256 256s256-115.2 256-256c0-89.6-46.933-166.4-115.2-213.333 0 0 0 0 0 0-38.4-25.6-89.6-42.667-140.8-42.667-140.8 0-256 115.2-256 256zM533.333 140.8c-12.8 8.533-29.867 8.533-42.667 0l-136.533-81.067 29.867 243.2c38.4-17.067 81.067-25.6 128-25.6s89.6 8.533 128 25.6l29.867-243.2-136.533 81.067z" />
</font>
</defs>
</svg>
